<?xml version="1.0" encoding="utf-8"?>
<!-- Generator: Adobe Illustrator 27.5.0, SVG Export Plug-In . SVG Version: 6.00 Build 0)  -->
<svg version="1.1" id="Capa_1" xmlns="http://www.w3.org/2000/svg" xmlns:xlink="http://www.w3.org/1999/xlink" x="0px" y="0px"
	 viewBox="0 0 425.2 425.2" style="enable-background:new 0 0 425.2 425.2;" xml:space="preserve">
<rect x="0.001" y="0.002" style="fill:#FFFFFF;" width="425.197" height="425.196"/>
<g>
	<g>
		<g>
			<g>
				
					<path style="fill:none;stroke:#2C343F;stroke-width:2.724;stroke-linecap:round;stroke-linejoin:round;stroke-miterlimit:10;" d="
					M277.703,187.282v-4.484c0,0-0.201-3.41-3.408-5.459c0,0-9.74-5.684-10.103-27.123c0,0-0.727-29.799-38.842-29.799h-17.756"/>
				
					<path style="fill:none;stroke:#2C343F;stroke-width:2.724;stroke-linecap:round;stroke-linejoin:round;stroke-miterlimit:10;" d="
					M145.432,187.282v-4.484c0,0,0.203-3.41,3.408-5.459c0,0,9.74-5.684,10.105-27.123c0,0,0.723-29.799,38.84-29.799h17.756"/>
			</g>
			<g>
				<g>
					<path style="fill:#F7C7AD;" d="M260.551,262.265c-19.437-2.193-29.012-7.94-30.646-9.006h-34.611
						c-1.635,1.066-11.209,6.812-30.645,9.006c0,0-37.043,1.387-36.004,68.549c0,0,27.873,12.574,83.955,12.467
						c56.078,0.107,83.955-12.467,83.955-12.467C297.594,263.651,260.551,262.265,260.551,262.265z"/>
					<path style="fill:#FFFFFF;" d="M164.648,262.265c0,0-37.043,1.387-36.004,68.549c0,0,27.873,12.574,83.955,12.467
						c56.078,0.107,83.955-12.467,83.955-12.467c1.039-67.162-36.004-68.549-36.004-68.549s-36.076-2.559-47.951,12.799
						C212.6,275.064,201.152,256.173,164.648,262.265z"/>
					<g>
						<rect x="194.93" y="234.585" style="fill:#F7C7AD;" width="35.34" height="25.703"/>
						<path style="fill:#DADADA;" d="M194.93,241.913v0.006c0.389,0.461,0.781,0.918,1.203,1.351
							c1.102,1.139,2.248,2.238,3.484,3.234c0.043,0.033,0.072,0.057,0.111,0.088c0.396,0.291,0.799,0.576,1.207,0.854
							c0.627,0.42,1.256,0.84,1.904,1.225c0.941,0.559,1.896,1.102,2.879,1.586c0.316,0.121,1.24,0.506,1.525,0.602
							c0.951,0.322,1.902,0.643,2.875,0.895c0.998,0.262,1.998,0.521,3.012,0.719c-0.264-0.051,2.674,0.438,1.971,0.377
							c2.377,0.266,4.773,0.445,7.17,0.398c1.029-0.02,2.059-0.039,3.084-0.119c0.328-0.025,1.859-0.254,2.014-0.254
							c0.98-0.215,1.945-0.486,2.9-0.797v-17.492h-35.34v7.25C195.031,241.989,195.057,242.046,194.93,241.913z"/>
					</g>
					<path style="fill:#F7C7AD;" d="M252.807,188.124c0,30.44-18.002,55.115-40.207,55.115c-22.207,0-40.207-24.676-40.207-55.115
						c0-30.439,18-49.516,40.207-49.516C234.805,138.608,252.807,157.685,252.807,188.124z"/>
					<defs>
						<filter id="Adobe_OpacityMaskFilter" filterUnits="userSpaceOnUse" x="188.636" y="152.663" width="56.155" height="75.848">
							<feFlood  style="flood-color:white;flood-opacity:1" result="back"/>
							<feBlend  in="SourceGraphic" in2="back" mode="normal"/>
						</filter>
					</defs>
					<mask maskUnits="userSpaceOnUse" x="188.636" y="152.663" width="56.155" height="75.848" id="SVGID_1_">
						<g style="filter:url(#Adobe_OpacityMaskFilter);">
							<defs>
								
									<filter id="Adobe_OpacityMaskFilter_00000071539704715006921230000011874125699897827252_" filterUnits="userSpaceOnUse" x="188.636" y="152.663" width="56.155" height="75.848">
									<feFlood  style="flood-color:white;flood-opacity:1" result="back"/>
									<feBlend  in="SourceGraphic" in2="back" mode="normal"/>
								</filter>
							</defs>
							<mask maskUnits="userSpaceOnUse" x="188.636" y="152.663" width="56.155" height="75.848" id="SVGID_1_">
								<g style="filter:url(#Adobe_OpacityMaskFilter_00000071539704715006921230000011874125699897827252_);">
								</g>
							</mask>
							
								<linearGradient id="SVGID_00000141450090169939552010000010637751367314378672_" gradientUnits="userSpaceOnUse" x1="216.7137" y1="149.7762" x2="216.7137" y2="215.1369">
								<stop  offset="0" style="stop-color:#FFFFFF"/>
								<stop  offset="1" style="stop-color:#000000"/>
							</linearGradient>
							<path style="mask:url(#SVGID_1_);fill:url(#SVGID_00000141450090169939552010000010637751367314378672_);" d="
								M191.166,163.259c0.014-0.07,0.027-0.141,0.039-0.211c5.682-6.674,13.521-10.385,22.176-10.385
								c17.346,0,31.41,14.902,31.41,38.684c0,15.85-6.252,29.688-15.555,37.164C229.236,228.511,176.666,222.243,191.166,163.259z"
								/>
						</g>
					</mask>
					
						<linearGradient id="SVGID_00000176737213041747909350000003300038329910012053_" gradientUnits="userSpaceOnUse" x1="216.7137" y1="149.7762" x2="216.7137" y2="215.1369">
						<stop  offset="0" style="stop-color:#FFFFFF"/>
						<stop  offset="1" style="stop-color:#FFFFFF"/>
					</linearGradient>
					<path style="fill:url(#SVGID_00000176737213041747909350000003300038329910012053_);" d="M191.166,163.259
						c0.014-0.07,0.027-0.141,0.039-0.211c5.682-6.674,13.521-10.385,22.176-10.385c17.346,0,31.41,14.902,31.41,38.684
						c0,15.85-6.252,29.688-15.555,37.164C229.236,228.511,176.666,222.243,191.166,163.259z"/>
					<path style="fill:#EDEDED;" d="M206.338,231.116c-13.699-8.635-21.166-23.289-23.063-39.061
						c-1.783-14.813,1.99-31.203,11.387-42.916c3.262-4.061,7.432-7.506,12.059-10.066c-19.418,3.064-34.328,21.35-34.328,49.051
						c0,30.44,18,55.115,40.207,55.115c6.449,0,12.543-2.086,17.945-5.785C222.135,237.735,213.701,235.759,206.338,231.116z"/>
					<path style="fill:#0D3953;" d="M193.602,254.255c-3.752,2.043-13.053,6.215-28.953,8.01c0,0-37.043,1.387-36.004,68.549
						c0,0,27.873,12.574,83.955,12.467c56.078,0.107,83.955-12.467,83.955-12.467c1.039-67.162-36.004-68.549-36.004-68.549
						c-15.906-1.795-25.205-5.969-28.957-8.01c0,0,19.75,44.016-18.994,83.629C212.6,337.884,175.146,299.292,193.602,254.255z"/>
					<path style="fill:#00B1C3;" d="M181.789,286.19c0.016,0.086,0.031,0.174,0.049,0.26c0.139,0.688,0.287,1.371,0.439,2.055
						c0.102-0.043,0.201-0.09,0.303-0.131C182.307,287.657,182.043,286.929,181.789,286.19z"/>
					<defs>
						
							<filter id="Adobe_OpacityMaskFilter_00000046317100568501129430000007789920051951179649_" filterUnits="userSpaceOnUse" x="242.252" y="268.493" width="49.635" height="68.525">
							<feFlood  style="flood-color:white;flood-opacity:1" result="back"/>
							<feBlend  in="SourceGraphic" in2="back" mode="normal"/>
						</filter>
					</defs>
					
						<mask maskUnits="userSpaceOnUse" x="242.252" y="268.493" width="49.635" height="68.525" id="SVGID_00000040556171505722127320000017155192290518539445_">
						<g style="filter:url(#Adobe_OpacityMaskFilter_00000046317100568501129430000007789920051951179649_);">
							<defs>
								
									<filter id="Adobe_OpacityMaskFilter_00000139262548895507219270000017320031380873944196_" filterUnits="userSpaceOnUse" x="242.252" y="268.493" width="49.635" height="68.525">
									<feFlood  style="flood-color:white;flood-opacity:1" result="back"/>
									<feBlend  in="SourceGraphic" in2="back" mode="normal"/>
								</filter>
							</defs>
							
								<mask maskUnits="userSpaceOnUse" x="242.252" y="268.493" width="49.635" height="68.525" id="SVGID_00000040556171505722127320000017155192290518539445_">
								<g style="filter:url(#Adobe_OpacityMaskFilter_00000139262548895507219270000017320031380873944196_);">
								</g>
							</mask>
							
								<linearGradient id="SVGID_00000036969308110863651750000008775359903767137176_" gradientUnits="userSpaceOnUse" x1="301.8609" y1="302.7559" x2="263.6208" y2="302.7559">
								<stop  offset="0" style="stop-color:#FFFFFF"/>
								<stop  offset="0.1569" style="stop-color:#CBCBCB"/>
								<stop  offset="0.3887" style="stop-color:#838383"/>
								<stop  offset="0.5974" style="stop-color:#4B4B4B"/>
								<stop  offset="0.7752" style="stop-color:#222222"/>
								<stop  offset="0.9152" style="stop-color:#090909"/>
								<stop  offset="1" style="stop-color:#000000"/>
							</linearGradient>
							
								<path style="mask:url(#SVGID_00000040556171505722127320000017155192290518539445_);fill:url(#SVGID_00000036969308110863651750000008775359903767137176_);" d="
								M259.996,309.39c4.086-11.299,7.07-24.117,5.076-36.143c-0.266-1.6-0.672-3.199-1.211-4.754
								c7.951,2,28.73,11.721,28.008,58.586c0,0-16.486,7.438-49.617,9.939C250.99,329.933,256.154,320.011,259.996,309.39z"/>
						</g>
					</mask>
					
						<linearGradient id="SVGID_00000119091775152510168780000004174688874143319446_" gradientUnits="userSpaceOnUse" x1="301.8609" y1="302.7559" x2="263.6208" y2="302.7559">
						<stop  offset="0" style="stop-color:#FFFFFF"/>
						<stop  offset="1" style="stop-color:#FFFFFF"/>
					</linearGradient>
					<path style="fill:url(#SVGID_00000119091775152510168780000004174688874143319446_);" d="M259.996,309.39
						c4.086-11.299,7.07-24.117,5.076-36.143c-0.266-1.6-0.672-3.199-1.211-4.754c7.951,2,28.73,11.721,28.008,58.586
						c0,0-16.486,7.438-49.617,9.939C250.99,329.933,256.154,320.011,259.996,309.39z"/>
					<defs>
						
							<filter id="Adobe_OpacityMaskFilter_00000052095207514883711360000006144673652556987270_" filterUnits="userSpaceOnUse" x="132.349" y="269.357" width="49.634" height="68.527">
							<feFlood  style="flood-color:white;flood-opacity:1" result="back"/>
							<feBlend  in="SourceGraphic" in2="back" mode="normal"/>
						</filter>
					</defs>
					
						<mask maskUnits="userSpaceOnUse" x="132.349" y="269.357" width="49.634" height="68.527" id="SVGID_00000005980182675773588860000016510499477838600599_">
						<g style="filter:url(#Adobe_OpacityMaskFilter_00000052095207514883711360000006144673652556987270_);">
							<defs>
								
									<filter id="Adobe_OpacityMaskFilter_00000093891596374695214300000016937016790487628421_" filterUnits="userSpaceOnUse" x="132.349" y="269.357" width="49.634" height="68.527">
									<feFlood  style="flood-color:white;flood-opacity:1" result="back"/>
									<feBlend  in="SourceGraphic" in2="back" mode="normal"/>
								</filter>
							</defs>
							
								<mask maskUnits="userSpaceOnUse" x="132.349" y="269.357" width="49.634" height="68.527" id="SVGID_00000005980182675773588860000016510499477838600599_">
								<g style="filter:url(#Adobe_OpacityMaskFilter_00000093891596374695214300000016937016790487628421_);">
								</g>
							</mask>
							
								<linearGradient id="SVGID_00000164514967631498009810000005009910845867798943_" gradientUnits="userSpaceOnUse" x1="-4874.5386" y1="303.6201" x2="-4912.7773" y2="303.6201" gradientTransform="matrix(-1 0 0 1 -4752.1631 0)">
								<stop  offset="0" style="stop-color:#FFFFFF"/>
								<stop  offset="0.1569" style="stop-color:#CBCBCB"/>
								<stop  offset="0.3887" style="stop-color:#838383"/>
								<stop  offset="0.5974" style="stop-color:#4B4B4B"/>
								<stop  offset="0.7752" style="stop-color:#222222"/>
								<stop  offset="0.9152" style="stop-color:#090909"/>
								<stop  offset="1" style="stop-color:#000000"/>
							</linearGradient>
							
								<path style="mask:url(#SVGID_00000005980182675773588860000016510499477838600599_);fill:url(#SVGID_00000164514967631498009810000005009910845867798943_);" d="
								M164.238,310.255c-4.088-11.299-7.072-24.119-5.074-36.143c0.266-1.602,0.67-3.199,1.209-4.756
								c-7.951,2.002-28.732,11.721-28.006,58.588c0,0,16.482,7.436,49.615,9.939C173.244,330.796,168.08,320.876,164.238,310.255z"
								/>
						</g>
					</mask>
					
						<linearGradient id="SVGID_00000092447575375489279000000001279459692904260488_" gradientUnits="userSpaceOnUse" x1="-4874.5386" y1="303.6201" x2="-4912.7773" y2="303.6201" gradientTransform="matrix(-1 0 0 1 -4752.1631 0)">
						<stop  offset="0" style="stop-color:#FFFFFF"/>
						<stop  offset="1" style="stop-color:#FFFFFF"/>
					</linearGradient>
					<path style="fill:url(#SVGID_00000092447575375489279000000001279459692904260488_);" d="M164.238,310.255
						c-4.088-11.299-7.072-24.119-5.074-36.143c0.266-1.602,0.67-3.199,1.209-4.756c-7.951,2.002-28.732,11.721-28.006,58.588
						c0,0,16.482,7.436,49.615,9.939C173.244,330.796,168.08,320.876,164.238,310.255z"/>
					<path style="fill:#031B2B;" d="M260.551,262.265c-15.906-1.795-25.205-5.969-28.957-8.01c0,0,2.754,20.809-18.994,83.629
						c0,0-18.92-53.201-18.998-83.629c-3.752,2.043-13.053,6.215-28.953,8.01c0,0-1.258,12.799,6.822,30.283
						c0,0,5.611-3.022,8.635-2.158l-8.732,6.412c0,0,13.697,22.684,33.775,46.479h16.836c0,0,22.807-31.965,33.842-51.164
						c0,0-2.682-3.031-10.957-5.613c0,0,5.076-1.727,10.957-0.863C255.826,285.64,262.258,275.064,260.551,262.265z"/>
					<path style="fill:#00B1C3;" d="M212.6,343.28"/>
					<path style="fill:#BE1622;" d="M212.6,337.884c-9.434-26.771-9.879-32.277-9.879-32.277l3.756-19.416l10.771,0.273
						l5.404,19.576C222.652,306.04,215.279,331.567,212.6,337.884z"/>
					<g>
						<path style="fill:#BE1622;" d="M203.516,275.064h17.244c0,0,0.76,9.217-5.896,13.441h-6.355
							C208.508,288.505,201.555,282.085,203.516,275.064z"/>
						<path style="fill:#DADADA;" d="M220.76,275.064h-3.072c0.248,0.643,0.391,1.332,0.391,2.055c0,3.182-2.656,5.838-5.838,5.838
							h-0.102c-3.184,0-5.838-2.656-5.838-5.838c0-0.723,0.143-1.412,0.391-2.055h-3.176c-1.961,7.021,4.992,13.441,4.992,13.441
							h6.355C221.52,284.28,220.76,275.064,220.76,275.064z"/>
					</g>
					<path style="fill:#432918;" d="M212.938,150.321c0,0,35.422-21.076,38.855,50.131c0,0,12.395-34.799-9.541-61.379
						c0,0-23.002-24.664-59.09-2.473c0,0-7.488,4.539-13.92,2.473c0,0,3.309,6.002,8.324,7.213c0,0-5.977,4.436-12.988,3.025
						c0,0,3.273,8.467,7.814,9.58c0,0-9.08,15.863,1.01,41.561C173.402,200.452,173.123,132.163,212.938,150.321z"/>
					<defs>
						
							<filter id="Adobe_OpacityMaskFilter_00000102518944589233769770000008637472473220490144_" filterUnits="userSpaceOnUse" x="174.971" y="129.014" width="75.57" height="32.929">
							<feFlood  style="flood-color:white;flood-opacity:1" result="back"/>
							<feBlend  in="SourceGraphic" in2="back" mode="normal"/>
						</filter>
					</defs>
					
						<mask maskUnits="userSpaceOnUse" x="174.971" y="129.014" width="75.57" height="32.929" id="SVGID_00000183212812162585535420000007900875313784331152_">
						<g style="filter:url(#Adobe_OpacityMaskFilter_00000102518944589233769770000008637472473220490144_);">
							<defs>
								
									<filter id="Adobe_OpacityMaskFilter_00000167365407486364004650000017656064260018948250_" filterUnits="userSpaceOnUse" x="174.971" y="129.014" width="75.57" height="32.929">
									<feFlood  style="flood-color:white;flood-opacity:1" result="back"/>
									<feBlend  in="SourceGraphic" in2="back" mode="normal"/>
								</filter>
							</defs>
							
								<mask maskUnits="userSpaceOnUse" x="174.971" y="129.014" width="75.57" height="32.929" id="SVGID_00000183212812162585535420000007900875313784331152_">
								<g style="filter:url(#Adobe_OpacityMaskFilter_00000167365407486364004650000017656064260018948250_);">
								</g>
							</mask>
							
								<linearGradient id="SVGID_00000159440332299295348630000014114380628997273003_" gradientUnits="userSpaceOnUse" x1="174.3184" y1="145.478" x2="251.7137" y2="145.478">
								<stop  offset="0" style="stop-color:#FFFFFF"/>
								<stop  offset="1" style="stop-color:#000000"/>
							</linearGradient>
							
								<path style="mask:url(#SVGID_00000183212812162585535420000007900875313784331152_);fill:url(#SVGID_00000159440332299295348630000014114380628997273003_);" d="
								M250.541,161.942c0,0-0.123-0.349-0.353-1.001c-0.233-0.65-0.549-1.621-1.046-2.806c-0.449-1.2-1.111-2.614-1.861-4.23
								c-0.415-0.787-0.856-1.625-1.321-2.508c-0.524-0.849-1.014-1.775-1.613-2.686c-0.621-0.896-1.203-1.871-1.944-2.781
								c-0.353-0.466-0.712-0.939-1.077-1.421c-0.394-0.456-0.793-0.92-1.198-1.39l-0.611-0.708l-0.667-0.671
								c-0.451-0.447-0.892-0.914-1.362-1.357c-0.989-0.836-1.937-1.761-3.039-2.527c-1.042-0.848-2.227-1.52-3.382-2.261
								c-1.227-0.615-2.434-1.306-3.744-1.795c-1.269-0.589-2.641-0.934-3.988-1.348l-2.076-0.434l-0.52-0.11l-0.502-0.061
								l-1.097-0.133c-1.49-0.244-2.847-0.221-4.258-0.32c-1.408,0.08-2.84,0.012-4.194,0.276c-0.672,0.116-1.393,0.146-2.019,0.328
								c-0.7,0.164-1.397,0.326-2.09,0.487c-0.692,0.162-1.381,0.322-2.064,0.482c-0.662,0.19-1.299,0.408-1.943,0.607
								c-2.587,0.734-5.002,1.782-7.301,2.739c-2.199,1.162-4.307,2.186-6.22,3.349c-1.926,1.118-3.798,2.035-5.552,2.612
								c-1.748,0.598-3.402,0.759-4.72,0.622c-1.336-0.104-2.286-0.591-2.905-0.889c-0.588-0.37-0.902-0.567-0.902-0.567
								s0.333,0.156,0.957,0.448c0.645,0.224,1.611,0.55,2.874,0.526c1.254-0.001,2.763-0.314,4.371-1.009
								c1.611-0.691,3.32-1.715,5.148-2.929c1.789-1.265,3.914-2.49,6.146-3.784c2.325-1.104,4.766-2.322,7.488-3.16
								c0.67-0.229,1.347-0.478,2.027-0.694c0.679-0.179,1.362-0.359,2.05-0.541c0.688-0.182,1.379-0.364,2.075-0.548
								c0.759-0.223,1.496-0.259,2.251-0.395c1.505-0.299,3.017-0.247,4.538-0.343c1.519,0.083,3.121,0.071,4.547,0.301l1.096,0.143
								l0.594,0.08l0.561,0.122l2.237,0.492c1.453,0.457,2.927,0.851,4.292,1.494c1.412,0.537,2.695,1.309,3.986,2.015
								c1.218,0.825,2.46,1.585,3.543,2.516c1.142,0.855,2.134,1.845,3.123,2.785c0.474,0.491,0.915,1.003,1.364,1.494l0.664,0.737
								c0.203,0.258,0.404,0.515,0.604,0.77c0.399,0.51,0.792,1.012,1.178,1.508c0.351,0.52,0.698,1.031,1.038,1.535
								c0.702,0.991,1.238,2.038,1.813,3c0.548,0.979,1.003,1.955,1.46,2.865c0.398,0.939,0.774,1.828,1.128,2.664
								c0.635,1.7,1.142,3.194,1.474,4.454c0.388,1.241,0.556,2.242,0.716,2.916C250.462,161.582,250.541,161.942,250.541,161.942z"
								/>
						</g>
					</mask>
					
						<linearGradient id="SVGID_00000124869754878037221330000017652421379856372639_" gradientUnits="userSpaceOnUse" x1="174.3184" y1="145.478" x2="251.7137" y2="145.478">
						<stop  offset="0" style="stop-color:#FFFFFF"/>
						<stop  offset="1" style="stop-color:#FFFFFF"/>
					</linearGradient>
					<path style="fill:url(#SVGID_00000124869754878037221330000017652421379856372639_);" d="M250.541,161.942
						c0,0-0.123-0.349-0.353-1.001c-0.233-0.65-0.549-1.621-1.046-2.806c-0.449-1.2-1.111-2.614-1.861-4.23
						c-0.415-0.787-0.856-1.625-1.321-2.508c-0.524-0.849-1.014-1.775-1.613-2.686c-0.621-0.896-1.203-1.871-1.944-2.781
						c-0.353-0.466-0.712-0.939-1.077-1.421c-0.394-0.456-0.793-0.92-1.198-1.39l-0.611-0.708l-0.667-0.671
						c-0.451-0.447-0.892-0.914-1.362-1.357c-0.989-0.836-1.937-1.761-3.039-2.527c-1.042-0.848-2.227-1.52-3.382-2.261
						c-1.227-0.615-2.434-1.306-3.744-1.795c-1.269-0.589-2.641-0.934-3.988-1.348l-2.076-0.434l-0.52-0.11l-0.502-0.061
						l-1.097-0.133c-1.49-0.244-2.847-0.221-4.258-0.32c-1.408,0.08-2.84,0.012-4.194,0.276c-0.672,0.116-1.393,0.146-2.019,0.328
						c-0.7,0.164-1.397,0.326-2.09,0.487c-0.692,0.162-1.381,0.322-2.064,0.482c-0.662,0.19-1.299,0.408-1.943,0.607
						c-2.587,0.734-5.002,1.782-7.301,2.739c-2.199,1.162-4.307,2.186-6.22,3.349c-1.926,1.118-3.798,2.035-5.552,2.612
						c-1.748,0.598-3.402,0.759-4.72,0.622c-1.336-0.104-2.286-0.591-2.905-0.889c-0.588-0.37-0.902-0.567-0.902-0.567
						s0.333,0.156,0.957,0.448c0.645,0.224,1.611,0.55,2.874,0.526c1.254-0.001,2.763-0.314,4.371-1.009
						c1.611-0.691,3.32-1.715,5.148-2.929c1.789-1.265,3.914-2.49,6.146-3.784c2.325-1.104,4.766-2.322,7.488-3.16
						c0.67-0.229,1.347-0.478,2.027-0.694c0.679-0.179,1.362-0.359,2.05-0.541c0.688-0.182,1.379-0.364,2.075-0.548
						c0.759-0.223,1.496-0.259,2.251-0.395c1.505-0.299,3.017-0.247,4.538-0.343c1.519,0.083,3.121,0.071,4.547,0.301l1.096,0.143
						l0.594,0.08l0.561,0.122l2.237,0.492c1.453,0.457,2.927,0.851,4.292,1.494c1.412,0.537,2.695,1.309,3.986,2.015
						c1.218,0.825,2.46,1.585,3.543,2.516c1.142,0.855,2.134,1.845,3.123,2.785c0.474,0.491,0.915,1.003,1.364,1.494l0.664,0.737
						c0.203,0.258,0.404,0.515,0.604,0.77c0.399,0.51,0.792,1.012,1.178,1.508c0.351,0.52,0.698,1.031,1.038,1.535
						c0.702,0.991,1.238,2.038,1.813,3c0.548,0.979,1.003,1.955,1.46,2.865c0.398,0.939,0.774,1.828,1.128,2.664
						c0.635,1.7,1.142,3.194,1.474,4.454c0.388,1.241,0.556,2.242,0.716,2.916C250.462,161.582,250.541,161.942,250.541,161.942z"/>
					<defs>
						
							<filter id="Adobe_OpacityMaskFilter_00000060012850317006612550000009574487105017158541_" filterUnits="userSpaceOnUse" x="178.842" y="133.747" width="66.98" height="30.262">
							<feFlood  style="flood-color:white;flood-opacity:1" result="back"/>
							<feBlend  in="SourceGraphic" in2="back" mode="normal"/>
						</filter>
					</defs>
					
						<mask maskUnits="userSpaceOnUse" x="178.842" y="133.747" width="66.98" height="30.262" id="SVGID_00000020366670695718086380000003415834618187296909_">
						<g style="filter:url(#Adobe_OpacityMaskFilter_00000060012850317006612550000009574487105017158541_);">
							<defs>
								
									<filter id="Adobe_OpacityMaskFilter_00000003071695375695693420000003307673889802853275_" filterUnits="userSpaceOnUse" x="178.842" y="133.747" width="66.98" height="30.262">
									<feFlood  style="flood-color:white;flood-opacity:1" result="back"/>
									<feBlend  in="SourceGraphic" in2="back" mode="normal"/>
								</filter>
							</defs>
							
								<mask maskUnits="userSpaceOnUse" x="178.842" y="133.747" width="66.98" height="30.262" id="SVGID_00000020366670695718086380000003415834618187296909_">
								<g style="filter:url(#Adobe_OpacityMaskFilter_00000003071695375695693420000003307673889802853275_);">
								</g>
							</mask>
							
								<linearGradient id="SVGID_00000003825044753988958250000014675537710112706956_" gradientUnits="userSpaceOnUse" x1="178.2373" y1="148.878" x2="246.8836" y2="148.878">
								<stop  offset="0" style="stop-color:#FFFFFF"/>
								<stop  offset="1" style="stop-color:#000000"/>
							</linearGradient>
							
								<path style="mask:url(#SVGID_00000020366670695718086380000003415834618187296909_);fill:url(#SVGID_00000003825044753988958250000014675537710112706956_);" d="
								M245.822,164.009c0,0-0.107-0.314-0.308-0.901c-0.205-0.584-0.48-1.458-0.906-2.527c-0.386-1.084-0.948-2.365-1.607-3.822
								c-0.362-0.712-0.749-1.469-1.155-2.268c-0.442-0.775-0.908-1.59-1.394-2.441c-1.054-1.646-2.22-3.414-3.666-5.105
								c-1.404-1.726-3.084-3.366-4.95-4.875c-1.846-1.543-4.003-2.793-6.275-3.824c-0.58-0.232-1.137-0.533-1.74-0.713l-1.8-0.581
								c-0.607-0.171-1.234-0.278-1.851-0.422c-0.293-0.06-0.654-0.154-0.893-0.185l-0.984-0.123
								c-1.334-0.223-2.572-0.252-3.824-0.322c-0.627-0.021-1.263,0.035-1.892,0.046l-0.943,0.032l-0.92,0.132
								c-0.598,0.099-1.253,0.159-1.797,0.282c-0.627,0.152-1.25,0.304-1.871,0.454c-0.62,0.15-1.236,0.3-1.848,0.448
								c-0.607,0.154-1.164,0.373-1.742,0.553c-2.312,0.682-4.463,1.641-6.518,2.519c-1.954,1.077-3.832,2.012-5.528,3.086
								c-1.709,1.035-3.374,1.886-4.942,2.421c-1.559,0.556-3.04,0.728-4.225,0.612c-1.201-0.082-2.049-0.539-2.601-0.811
								c-0.522-0.34-0.801-0.521-0.801-0.521s0.296,0.145,0.852,0.415c0.576,0.207,1.439,0.508,2.57,0.492
								c1.123,0.002,2.48-0.281,3.906-0.945c1.433-0.648,2.942-1.605,4.563-2.721c1.583-1.165,3.481-2.286,5.462-3.481
								c1.042-0.503,2.114-1.019,3.208-1.546l0.829-0.395l0.875-0.319c0.588-0.213,1.182-0.428,1.781-0.645
								c0.599-0.205,1.205-0.456,1.813-0.629c0.607-0.167,1.218-0.334,1.834-0.503c0.615-0.168,1.234-0.338,1.856-0.508
								c0.711-0.171,1.352-0.23,2.037-0.349l1.015-0.152l1.017-0.047c0.681-0.021,1.358-0.085,2.047-0.068
								c1.379,0.059,2.787,0.097,4.068,0.305l0.982,0.132c0.415,0.061,0.693,0.148,1.046,0.221c0.668,0.16,1.345,0.286,2.002,0.477
								c0.65,0.217,1.299,0.433,1.945,0.648c0.651,0.204,1.252,0.529,1.876,0.788c2.456,1.124,4.708,2.585,6.63,4.267
								c0.503,0.395,0.968,0.825,1.408,1.27c0.444,0.441,0.904,0.859,1.311,1.316c0.8,0.927,1.611,1.808,2.282,2.757
								c1.436,1.828,2.518,3.74,3.482,5.504c0.447,0.9,0.87,1.767,1.248,2.599c0.337,0.849,0.658,1.653,0.959,2.41
								c0.531,1.538,0.976,2.88,1.265,4.011c0.343,1.115,0.475,2.017,0.616,2.622C245.754,163.685,245.822,164.009,245.822,164.009z
								"/>
						</g>
					</mask>
					
						<linearGradient id="SVGID_00000075148809808927683840000014297761870274823830_" gradientUnits="userSpaceOnUse" x1="178.2373" y1="148.878" x2="246.8836" y2="148.878">
						<stop  offset="0" style="stop-color:#FFFFFF"/>
						<stop  offset="1" style="stop-color:#FFFFFF"/>
					</linearGradient>
					<path style="fill:url(#SVGID_00000075148809808927683840000014297761870274823830_);" d="M245.822,164.009
						c0,0-0.107-0.314-0.308-0.901c-0.205-0.584-0.48-1.458-0.906-2.527c-0.386-1.084-0.948-2.365-1.607-3.822
						c-0.362-0.712-0.749-1.469-1.155-2.268c-0.442-0.775-0.908-1.59-1.394-2.441c-1.054-1.646-2.22-3.414-3.666-5.105
						c-1.404-1.726-3.084-3.366-4.95-4.875c-1.846-1.543-4.003-2.793-6.275-3.824c-0.58-0.232-1.137-0.533-1.74-0.713l-1.8-0.581
						c-0.607-0.171-1.234-0.278-1.851-0.422c-0.293-0.06-0.654-0.154-0.893-0.185l-0.984-0.123
						c-1.334-0.223-2.572-0.252-3.824-0.322c-0.627-0.021-1.263,0.035-1.892,0.046l-0.943,0.032l-0.92,0.132
						c-0.598,0.099-1.253,0.159-1.797,0.282c-0.627,0.152-1.25,0.304-1.871,0.454c-0.62,0.15-1.236,0.3-1.848,0.448
						c-0.607,0.154-1.164,0.373-1.742,0.553c-2.312,0.682-4.463,1.641-6.518,2.519c-1.954,1.077-3.832,2.012-5.528,3.086
						c-1.709,1.035-3.374,1.886-4.942,2.421c-1.559,0.556-3.04,0.728-4.225,0.612c-1.201-0.082-2.049-0.539-2.601-0.811
						c-0.522-0.34-0.801-0.521-0.801-0.521s0.296,0.145,0.852,0.415c0.576,0.207,1.439,0.508,2.57,0.492
						c1.123,0.002,2.48-0.281,3.906-0.945c1.433-0.648,2.942-1.605,4.563-2.721c1.583-1.165,3.481-2.286,5.462-3.481
						c1.042-0.503,2.114-1.019,3.208-1.546l0.829-0.395l0.875-0.319c0.588-0.213,1.182-0.428,1.781-0.645
						c0.599-0.205,1.205-0.456,1.813-0.629c0.607-0.167,1.218-0.334,1.834-0.503c0.615-0.168,1.234-0.338,1.856-0.508
						c0.711-0.171,1.352-0.23,2.037-0.349l1.015-0.152l1.017-0.047c0.681-0.021,1.358-0.085,2.047-0.068
						c1.379,0.059,2.787,0.097,4.068,0.305l0.982,0.132c0.415,0.061,0.693,0.148,1.046,0.221c0.668,0.16,1.345,0.286,2.002,0.477
						c0.65,0.217,1.299,0.433,1.945,0.648c0.651,0.204,1.252,0.529,1.876,0.788c2.456,1.124,4.708,2.585,6.63,4.267
						c0.503,0.395,0.968,0.825,1.408,1.27c0.444,0.441,0.904,0.859,1.311,1.316c0.8,0.927,1.611,1.808,2.282,2.757
						c1.436,1.828,2.518,3.74,3.482,5.504c0.447,0.9,0.87,1.767,1.248,2.599c0.337,0.849,0.658,1.653,0.959,2.41
						c0.531,1.538,0.976,2.88,1.265,4.011c0.343,1.115,0.475,2.017,0.616,2.622C245.754,163.685,245.822,164.009,245.822,164.009z"
						/>
					<defs>
						
							<filter id="Adobe_OpacityMaskFilter_00000110468468524531893050000012142348596989892521_" filterUnits="userSpaceOnUse" x="170.535" y="150.765" width="12.942" height="41.357">
							<feFlood  style="flood-color:white;flood-opacity:1" result="back"/>
							<feBlend  in="SourceGraphic" in2="back" mode="normal"/>
						</filter>
					</defs>
					
						<mask maskUnits="userSpaceOnUse" x="170.535" y="150.765" width="12.942" height="41.357" id="SVGID_00000106865589197865065690000015225355802530136211_">
						<g style="filter:url(#Adobe_OpacityMaskFilter_00000110468468524531893050000012142348596989892521_);">
							<defs>
								
									<filter id="Adobe_OpacityMaskFilter_00000075132928416893353460000008724181406527571364_" filterUnits="userSpaceOnUse" x="170.535" y="150.765" width="12.942" height="41.357">
									<feFlood  style="flood-color:white;flood-opacity:1" result="back"/>
									<feBlend  in="SourceGraphic" in2="back" mode="normal"/>
								</filter>
							</defs>
							
								<mask maskUnits="userSpaceOnUse" x="170.535" y="150.765" width="12.942" height="41.357" id="SVGID_00000106865589197865065690000015225355802530136211_">
								<g style="filter:url(#Adobe_OpacityMaskFilter_00000075132928416893353460000008724181406527571364_);">
								</g>
							</mask>
							
								<linearGradient id="SVGID_00000123410920911878525600000002287122241252238755_" gradientUnits="userSpaceOnUse" x1="169.4703" y1="171.4434" x2="188.2538" y2="171.4434">
								<stop  offset="0" style="stop-color:#FFFFFF"/>
								<stop  offset="1" style="stop-color:#000000"/>
							</linearGradient>
							
								<path style="mask:url(#SVGID_00000106865589197865065690000015225355802530136211_);fill:url(#SVGID_00000123410920911878525600000002287122241252238755_);" d="
								M170.535,150.765c0.402,0.827,0.952,1.563,1.581,2.184c0.319,0.309,0.667,0.577,1.016,0.831
								c0.367,0.233,0.739,0.446,1.136,0.604c0.188,0.1,0.401,0.141,0.601,0.208c0.202,0.063,0.399,0.131,0.611,0.157l0.62,0.111
								l0.633,0.03c0.416,0.048,0.848-0.046,1.265-0.058c0.21-0.02,0.421-0.077,0.631-0.108l0.628-0.11l4.219-0.747l-3.736,2.27
								c-0.48,0.291-1.085,0.861-1.537,1.416c-0.481,0.563-0.904,1.193-1.301,1.835c-0.369,0.667-0.74,1.329-1.015,2.054
								c-0.322,0.694-0.561,1.433-0.807,2.168c-0.278,0.722-0.427,1.495-0.619,2.251c-0.214,0.75-0.323,1.528-0.457,2.304
								c-0.13,0.774-0.302,1.542-0.355,2.335l-0.239,2.361c-0.061,0.789-0.084,1.586-0.129,2.38
								c-0.027,0.796-0.112,1.589-0.079,2.39c0.032,1.596-0.066,3.201,0.04,4.804l0.085,2.412c0.037,0.804,0.029,1.614,0.104,2.417
								c0.122,1.609,0.201,3.229,0.255,4.86c-0.41-1.571-0.795-3.154-1.139-4.748c-0.366-1.59-0.534-3.213-0.803-4.826
								c-0.133-0.807-0.196-1.622-0.255-2.438l-0.186-2.451c-0.075-0.816-0.03-1.641-0.044-2.463
								c0.008-0.822-0.021-1.646,0.02-2.471l0.208-2.472c0.043-0.825,0.208-1.646,0.332-2.468c0.119-0.823,0.277-1.641,0.51-2.448
								c0.219-0.809,0.394-1.626,0.709-2.415c0.278-0.796,0.551-1.594,0.957-2.348c0.343-0.776,0.795-1.508,1.251-2.234
								c0.49-0.707,0.999-1.41,1.631-2.021c0.641-0.628,1.243-1.178,2.196-1.648l0.483,1.523c-0.491,0.041-0.975,0.111-1.465,0.12
								c-0.497-0.037-0.986,0.003-1.478-0.104l-0.731-0.124l-0.714-0.214c-0.24-0.062-0.467-0.163-0.689-0.273
								c-0.222-0.111-0.453-0.197-0.655-0.343c-0.427-0.248-0.811-0.551-1.177-0.869c-0.352-0.334-0.67-0.695-0.949-1.083
								c-0.271-0.392-0.52-0.794-0.71-1.223C170.794,151.655,170.639,151.213,170.535,150.765z"/>
						</g>
					</mask>
					
						<linearGradient id="SVGID_00000051346539976293907490000010985156676246042776_" gradientUnits="userSpaceOnUse" x1="169.4703" y1="171.4434" x2="188.2538" y2="171.4434">
						<stop  offset="0" style="stop-color:#FFFFFF"/>
						<stop  offset="1" style="stop-color:#FFFFFF"/>
					</linearGradient>
					<path style="fill:url(#SVGID_00000051346539976293907490000010985156676246042776_);" d="M170.535,150.765
						c0.402,0.827,0.952,1.563,1.581,2.184c0.319,0.309,0.667,0.577,1.016,0.831c0.367,0.233,0.739,0.446,1.136,0.604
						c0.188,0.1,0.401,0.141,0.601,0.208c0.202,0.063,0.399,0.131,0.611,0.157l0.62,0.111l0.633,0.03
						c0.416,0.048,0.848-0.046,1.265-0.058c0.21-0.02,0.421-0.077,0.631-0.108l0.628-0.11l4.219-0.747l-3.736,2.27
						c-0.48,0.291-1.085,0.861-1.537,1.416c-0.481,0.563-0.904,1.193-1.301,1.835c-0.369,0.667-0.74,1.329-1.015,2.054
						c-0.322,0.694-0.561,1.433-0.807,2.168c-0.278,0.722-0.427,1.495-0.619,2.251c-0.214,0.75-0.323,1.528-0.457,2.304
						c-0.13,0.774-0.302,1.542-0.355,2.335l-0.239,2.361c-0.061,0.789-0.084,1.586-0.129,2.38c-0.027,0.796-0.112,1.589-0.079,2.39
						c0.032,1.596-0.066,3.201,0.04,4.804l0.085,2.412c0.037,0.804,0.029,1.614,0.104,2.417c0.122,1.609,0.201,3.229,0.255,4.86
						c-0.41-1.571-0.795-3.154-1.139-4.748c-0.366-1.59-0.534-3.213-0.803-4.826c-0.133-0.807-0.196-1.622-0.255-2.438l-0.186-2.451
						c-0.075-0.816-0.03-1.641-0.044-2.463c0.008-0.822-0.021-1.646,0.02-2.471l0.208-2.472c0.043-0.825,0.208-1.646,0.332-2.468
						c0.119-0.823,0.277-1.641,0.51-2.448c0.219-0.809,0.394-1.626,0.709-2.415c0.278-0.796,0.551-1.594,0.957-2.348
						c0.343-0.776,0.795-1.508,1.251-2.234c0.49-0.707,0.999-1.41,1.631-2.021c0.641-0.628,1.243-1.178,2.196-1.648l0.483,1.523
						c-0.491,0.041-0.975,0.111-1.465,0.12c-0.497-0.037-0.986,0.003-1.478-0.104l-0.731-0.124l-0.714-0.214
						c-0.24-0.062-0.467-0.163-0.689-0.273c-0.222-0.111-0.453-0.197-0.655-0.343c-0.427-0.248-0.811-0.551-1.177-0.869
						c-0.352-0.334-0.67-0.695-0.949-1.083c-0.271-0.392-0.52-0.794-0.71-1.223C170.794,151.655,170.639,151.213,170.535,150.765z"
						/>
					<path style="fill:#DEDEDE;" d="M193.602,254.255c0,0-16.094,5.803-8.316,25.773c0,0,1.814-21.168,27.537,2.375
						c0,0,1.715-17.81-8.107-21.588C204.715,260.815,193.602,259.14,193.602,254.255z"/>
					<path style="fill:#DEDEDE;" d="M231.965,254.255c0,0,14.482,5.5,6.426,23.398c0,0-7.986-18.564-25.568,4.75
						c0,0-2.494-19.592,8.027-21.588C220.85,260.815,231.965,259.14,231.965,254.255z"/>
				</g>
			</g>
			<g>
				<path style="fill:#00818D;" d="M281.256,188.936c0,1.906-1.555,3.451-3.471,3.451l0,0c-1.916,0-3.471-1.545-3.471-3.451l0,0
					c0-1.906,1.555-3.451,3.471-3.451l0,0C279.701,185.485,281.256,187.03,281.256,188.936L281.256,188.936z"/>
				<g>
					<path style="fill:#464F5B;" d="M250.17,179.011c0-4.873,3.971-8.822,8.869-8.822l0,0c4.898,0,8.871,3.949,8.871,8.822v19.852
						c0,4.873-3.973,8.824-8.871,8.824l0,0c-4.898,0-8.869-3.951-8.869-8.824V179.011z"/>
					<path style="fill:#C6C6C6;" d="M260.857,179.483c3.836,4.74,4.357,10.244,3.266,16.064c-0.934,4.986-4.65,10.021-9.851,10.746
						c1.377,0.877,3.01,1.392,4.768,1.392c4.898,0,8.871-3.951,8.871-8.824v-19.852c0-4.873-3.973-8.822-8.871-8.822
						c-3.83,0-7.082,2.418-8.324,5.801C254.465,175.528,258.369,176.407,260.857,179.483z"/>
					<defs>
						
							<filter id="Adobe_OpacityMaskFilter_00000070095502594076080460000005739245476875475343_" filterUnits="userSpaceOnUse" x="253.311" y="178.093" width="1.848" height="24.262">
							<feFlood  style="flood-color:white;flood-opacity:1" result="back"/>
							<feBlend  in="SourceGraphic" in2="back" mode="normal"/>
						</filter>
					</defs>
					
						<mask maskUnits="userSpaceOnUse" x="253.311" y="178.093" width="1.848" height="24.262" id="SVGID_00000010280795711381984280000014633303986449219488_">
						<g style="filter:url(#Adobe_OpacityMaskFilter_00000070095502594076080460000005739245476875475343_);">
							<defs>
								
									<filter id="Adobe_OpacityMaskFilter_00000178886865153008961370000002610240526417757868_" filterUnits="userSpaceOnUse" x="253.311" y="178.093" width="1.848" height="24.262">
									<feFlood  style="flood-color:white;flood-opacity:1" result="back"/>
									<feBlend  in="SourceGraphic" in2="back" mode="normal"/>
								</filter>
							</defs>
							
								<mask maskUnits="userSpaceOnUse" x="253.311" y="178.093" width="1.848" height="24.262" id="SVGID_00000010280795711381984280000014633303986449219488_">
								<g style="filter:url(#Adobe_OpacityMaskFilter_00000178886865153008961370000002610240526417757868_);">
								</g>
							</mask>
							
								<linearGradient id="SVGID_00000163062111453592105890000006743480124018189225_" gradientUnits="userSpaceOnUse" x1="253.3105" y1="190.2236" x2="255.1582" y2="190.2236">
								<stop  offset="0" style="stop-color:#FFFFFF"/>
								<stop  offset="1" style="stop-color:#000000"/>
							</linearGradient>
							
								<path style="mask:url(#SVGID_00000010280795711381984280000014633303986449219488_);fill:url(#SVGID_00000163062111453592105890000006743480124018189225_);" d="
								M253.311,179.011c0-0.508,0.412-0.918,0.924-0.918l0,0c0.512,0,0.924,0.41,0.924,0.918v22.424c0,0.508-0.412,0.92-0.924,0.92
								l0,0c-0.512,0-0.924-0.412-0.924-0.92V179.011z"/>
						</g>
					</mask>
					
						<linearGradient id="SVGID_00000109730056393283121690000006418691683020839298_" gradientUnits="userSpaceOnUse" x1="253.3105" y1="190.2236" x2="255.1582" y2="190.2236">
						<stop  offset="0" style="stop-color:#FFFFFF"/>
						<stop  offset="1" style="stop-color:#FFFFFF"/>
					</linearGradient>
					<path style="fill:url(#SVGID_00000109730056393283121690000006418691683020839298_);" d="M253.311,179.011
						c0-0.508,0.412-0.918,0.924-0.918l0,0c0.512,0,0.924,0.41,0.924,0.918v22.424c0,0.508-0.412,0.92-0.924,0.92l0,0
						c-0.512,0-0.924-0.412-0.924-0.92V179.011z"/>
				</g>
				<g>
					<path style="fill:#00B1C3;" d="M266.713,175.417v27.039c5.959-1.643,10.332-7.07,10.332-13.52
						C277.045,182.487,272.672,177.06,266.713,175.417z"/>
					<path style="fill:#DADADA;" d="M272.85,194.105c-4.518-2.898-5.674-6.99-6.137-11.91v20.262
						c3.854-1.063,7.033-3.711,8.809-7.191C274.584,195.013,273.68,194.636,272.85,194.105z"/>
				</g>
				
					<path style="fill:none;stroke:#2C343F;stroke-width:3.3174;stroke-linecap:round;stroke-linejoin:round;stroke-miterlimit:10;" d="
					M271.117,196.29c0,0,5.102,46.35-43.678,45.031"/>
				<path style="fill:#232A33;" d="M229.199,241.505c0,2.234-1.82,4.045-4.064,4.045h-5.457c-2.244,0-4.066-1.811-4.066-4.045l0,0
					c0-2.232,1.822-4.043,4.066-4.043h5.457C227.379,237.462,229.199,239.273,229.199,241.505L229.199,241.505z"/>
				<path style="fill:#00818D;" d="M141.881,188.936c0,1.906,1.553,3.451,3.469,3.451l0,0c1.918,0,3.473-1.545,3.473-3.451l0,0
					c0-1.906-1.555-3.451-3.473-3.451l0,0C143.434,185.485,141.881,187.03,141.881,188.936L141.881,188.936z"/>
				<g>
					<path style="fill:#464F5B;" d="M172.965,179.011c0-4.873-3.969-8.822-8.869-8.822l0,0c-4.896,0-8.869,3.949-8.869,8.822v19.852
						c0,4.873,3.973,8.824,8.869,8.824l0,0c4.9,0,8.869-3.951,8.869-8.824V179.011z"/>
					<path style="fill:#C6C6C6;" d="M162.277,179.483c-3.836,4.74-4.357,10.244-3.266,16.064c0.936,4.986,4.652,10.021,9.853,10.746
						c-1.379,0.877-3.014,1.392-4.769,1.392c-4.896,0-8.869-3.951-8.869-8.824v-19.852c0-4.873,3.973-8.822,8.869-8.822
						c3.832,0,7.082,2.418,8.326,5.801C168.672,175.528,164.766,176.407,162.277,179.483z"/>
					<defs>
						
							<filter id="Adobe_OpacityMaskFilter_00000134210678554790653750000002271478121671486893_" filterUnits="userSpaceOnUse" x="167.977" y="178.093" width="1.848" height="24.262">
							<feFlood  style="flood-color:white;flood-opacity:1" result="back"/>
							<feBlend  in="SourceGraphic" in2="back" mode="normal"/>
						</filter>
					</defs>
					
						<mask maskUnits="userSpaceOnUse" x="167.977" y="178.093" width="1.848" height="24.262" id="SVGID_00000000915821132169334200000006368729316599280007_">
						<g style="filter:url(#Adobe_OpacityMaskFilter_00000134210678554790653750000002271478121671486893_);">
							<defs>
								
									<filter id="Adobe_OpacityMaskFilter_00000100354891206713520670000009312464913150080641_" filterUnits="userSpaceOnUse" x="167.977" y="178.093" width="1.848" height="24.262">
									<feFlood  style="flood-color:white;flood-opacity:1" result="back"/>
									<feBlend  in="SourceGraphic" in2="back" mode="normal"/>
								</filter>
							</defs>
							
								<mask maskUnits="userSpaceOnUse" x="167.977" y="178.093" width="1.848" height="24.262" id="SVGID_00000000915821132169334200000006368729316599280007_">
								<g style="filter:url(#Adobe_OpacityMaskFilter_00000100354891206713520670000009312464913150080641_);">
								</g>
							</mask>
							
								<linearGradient id="SVGID_00000053506963054493126390000003155829503637961655_" gradientUnits="userSpaceOnUse" x1="167.9766" y1="190.2236" x2="169.8242" y2="190.2236">
								<stop  offset="0" style="stop-color:#FFFFFF"/>
								<stop  offset="1" style="stop-color:#000000"/>
							</linearGradient>
							
								<path style="mask:url(#SVGID_00000000915821132169334200000006368729316599280007_);fill:url(#SVGID_00000053506963054493126390000003155829503637961655_);" d="
								M169.824,179.011c0-0.508-0.412-0.918-0.922-0.918l0,0c-0.512,0-0.926,0.41-0.926,0.918v22.424
								c0,0.508,0.414,0.92,0.926,0.92l0,0c0.51,0,0.922-0.412,0.922-0.92V179.011z"/>
						</g>
					</mask>
					
						<linearGradient id="SVGID_00000154404085036149528220000004305789819454928575_" gradientUnits="userSpaceOnUse" x1="167.9766" y1="190.2236" x2="169.8242" y2="190.2236">
						<stop  offset="0" style="stop-color:#FFFFFF"/>
						<stop  offset="1" style="stop-color:#FFFFFF"/>
					</linearGradient>
					<path style="fill:url(#SVGID_00000154404085036149528220000004305789819454928575_);" d="M169.824,179.011
						c0-0.508-0.412-0.918-0.922-0.918l0,0c-0.512,0-0.926,0.41-0.926,0.918v22.424c0,0.508,0.414,0.92,0.926,0.92l0,0
						c0.51,0,0.922-0.412,0.922-0.92V179.011z"/>
				</g>
				<g>
					<path style="fill:#00B1C3;" d="M156.422,175.417v27.039c-5.959-1.643-10.334-7.07-10.334-13.52
						C146.088,182.487,150.463,177.06,156.422,175.417z"/>
					<path style="fill:#DADADA;" d="M150.283,194.105c4.521-2.898,5.676-6.99,6.139-11.91v20.262
						c-3.852-1.063-7.035-3.711-8.809-7.191C148.555,195.013,149.455,194.636,150.283,194.105z"/>
				</g>
			</g>
		</g>
		<g>
			<ellipse style="fill:#C6C6C6;" cx="212.6" cy="381.321" rx="118.189" ry="14.981"/>
			<g>
				<path style="fill:#3C444E;" d="M298.978,376.892c0,3.166-3.514,5.734-7.85,5.734H132.705c-4.336,0-7.85-2.568-7.85-5.734
					l-6.99-78.844c0-3.168,3.518-5.734,7.852-5.734h175.402c4.334,0,7.848,2.566,7.848,5.734L298.978,376.892z"/>
				<defs>
					
						<filter id="Adobe_OpacityMaskFilter_00000124164111927316386690000014265629744963962780_" filterUnits="userSpaceOnUse" x="124.025" y="298.419" width="177.146" height="79.137">
						<feFlood  style="flood-color:white;flood-opacity:1" result="back"/>
						<feBlend  in="SourceGraphic" in2="back" mode="normal"/>
					</filter>
				</defs>
				
					<mask maskUnits="userSpaceOnUse" x="124.025" y="298.419" width="177.146" height="79.137" id="SVGID_00000160882711635216673970000016903219912217535115_">
					<g style="filter:url(#Adobe_OpacityMaskFilter_00000124164111927316386690000014265629744963962780_);">
						<defs>
							
								<filter id="Adobe_OpacityMaskFilter_00000121997558280332587540000017411410661735013544_" filterUnits="userSpaceOnUse" x="124.025" y="298.419" width="177.146" height="79.137">
								<feFlood  style="flood-color:white;flood-opacity:1" result="back"/>
								<feBlend  in="SourceGraphic" in2="back" mode="normal"/>
							</filter>
						</defs>
						
							<mask maskUnits="userSpaceOnUse" x="124.025" y="298.419" width="177.146" height="79.137" id="SVGID_00000160882711635216673970000016903219912217535115_">
							<g style="filter:url(#Adobe_OpacityMaskFilter_00000121997558280332587540000017411410661735013544_);">
							</g>
						</mask>
						
							<linearGradient id="SVGID_00000096019650755236956990000003029857064377483437_" gradientUnits="userSpaceOnUse" x1="212.5986" y1="297.6627" x2="212.5986" y2="361.4936">
							<stop  offset="0" style="stop-color:#FFFFFF"/>
							<stop  offset="0.061" style="stop-color:#E4E4E4"/>
							<stop  offset="0.2087" style="stop-color:#A8A8A8"/>
							<stop  offset="0.3559" style="stop-color:#757575"/>
							<stop  offset="0.4991" style="stop-color:#4B4B4B"/>
							<stop  offset="0.6375" style="stop-color:#2A2A2A"/>
							<stop  offset="0.7699" style="stop-color:#131313"/>
							<stop  offset="0.8936" style="stop-color:#050505"/>
							<stop  offset="1" style="stop-color:#000000"/>
						</linearGradient>
						
							<path style="mask:url(#SVGID_00000160882711635216673970000016903219912217535115_);fill:url(#SVGID_00000096019650755236956990000003029857064377483437_);" d="
							M292.42,372.532c0,2.773-3.082,5.023-6.881,5.023H137.027c-3.797,0-6.879-2.25-6.879-5.023l-6.123-69.09
							c0-2.775,3.08-5.023,6.879-5.023h163.391c3.797,0,6.877,2.248,6.877,5.023L292.42,372.532z"/>
					</g>
				</mask>
				
					<linearGradient id="SVGID_00000128456771875181453750000017600847342020317067_" gradientUnits="userSpaceOnUse" x1="212.5986" y1="297.6627" x2="212.5986" y2="361.4936">
					<stop  offset="0" style="stop-color:#FFFFFF"/>
					<stop  offset="1" style="stop-color:#FFFFFF"/>
				</linearGradient>
				<path style="fill:url(#SVGID_00000128456771875181453750000017600847342020317067_);" d="M292.42,372.532
					c0,2.773-3.082,5.023-6.881,5.023H137.027c-3.797,0-6.879-2.25-6.879-5.023l-6.123-69.09c0-2.775,3.08-5.023,6.879-5.023
					h163.391c3.797,0,6.877,2.248,6.877,5.023L292.42,372.532z"/>
			</g>
		</g>
	</g>
	<g>
		<g>
			<g>
				
					<path style="fill:none;stroke:#2C343F;stroke-width:1.4057;stroke-linecap:round;stroke-linejoin:round;stroke-miterlimit:10;" d="
					M195.764,65.962v-2.307c0,0-0.105-1.755-1.765-2.809c0,0-5.042-2.923-5.23-13.951c0,0-0.376-15.328-20.108-15.328h-9.193"/>
				<path style="fill:#8F2015;" d="M196.96,66.804c0,0.969-0.79,1.754-1.765,1.754l0,0c-0.975,0-1.765-0.785-1.765-1.754l0,0
					c0-0.971,0.79-1.756,1.765-1.756l0,0C196.17,65.048,196.96,65.833,196.96,66.804L196.96,66.804z"/>
				<g>
					<path style="fill:#464F5B;" d="M181.154,61.756c0-2.478,2.019-4.486,4.51-4.486l0,0c2.491,0,4.51,2.009,4.51,4.486v10.095
						c0,2.478-2.019,4.486-4.51,4.486l0,0c-2.491,0-4.51-2.009-4.51-4.486V61.756z"/>
					<path style="fill:#C6C6C6;" d="M186.588,61.996c1.951,2.41,2.215,5.209,1.66,8.169c-0.475,2.535-2.365,5.096-5.009,5.463
						c0.701,0.446,1.531,0.709,2.424,0.709c2.491,0,4.51-2.009,4.51-4.486V61.756c0-2.478-2.019-4.486-4.51-4.486
						c-1.947,0-3.602,1.229-4.232,2.95C183.337,59.984,185.323,60.433,186.588,61.996z"/>
					<defs>
						
							<filter id="Adobe_OpacityMaskFilter_00000063595510146115481130000017695145141124109983_" filterUnits="userSpaceOnUse" x="182.751" y="61.288" width="0.939" height="12.337">
							<feFlood  style="flood-color:white;flood-opacity:1" result="back"/>
							<feBlend  in="SourceGraphic" in2="back" mode="normal"/>
						</filter>
					</defs>
					
						<mask maskUnits="userSpaceOnUse" x="182.751" y="61.288" width="0.939" height="12.337" id="SVGID_00000101822380585618247910000015078496694452049849_">
						<g style="filter:url(#Adobe_OpacityMaskFilter_00000063595510146115481130000017695145141124109983_);">
							<defs>
								
									<filter id="Adobe_OpacityMaskFilter_00000168827657644760453730000002024239159907770776_" filterUnits="userSpaceOnUse" x="182.751" y="61.288" width="0.939" height="12.337">
									<feFlood  style="flood-color:white;flood-opacity:1" result="back"/>
									<feBlend  in="SourceGraphic" in2="back" mode="normal"/>
								</filter>
							</defs>
							
								<mask maskUnits="userSpaceOnUse" x="182.751" y="61.288" width="0.939" height="12.337" id="SVGID_00000101822380585618247910000015078496694452049849_">
								<g style="filter:url(#Adobe_OpacityMaskFilter_00000168827657644760453730000002024239159907770776_);">
								</g>
							</mask>
							
								<linearGradient id="SVGID_00000183952210667280996830000000623457932509263499_" gradientUnits="userSpaceOnUse" x1="182.751" y1="67.4566" x2="183.6904" y2="67.4566">
								<stop  offset="0" style="stop-color:#FFFFFF"/>
								<stop  offset="1" style="stop-color:#000000"/>
							</linearGradient>
							
								<path style="mask:url(#SVGID_00000101822380585618247910000015078496694452049849_);fill:url(#SVGID_00000183952210667280996830000000623457932509263499_);" d="
								M182.751,61.756c0-0.259,0.21-0.468,0.47-0.468l0,0c0.259,0,0.47,0.209,0.47,0.468v11.402c0,0.258-0.21,0.467-0.47,0.467l0,0
								c-0.26,0-0.47-0.209-0.47-0.467V61.756z"/>
						</g>
					</mask>
					
						<linearGradient id="SVGID_00000039134993077062929710000013550290655751013052_" gradientUnits="userSpaceOnUse" x1="182.751" y1="67.4566" x2="183.6904" y2="67.4566">
						<stop  offset="0" style="stop-color:#FFFFFF"/>
						<stop  offset="1" style="stop-color:#FFFFFF"/>
					</linearGradient>
					<path style="fill:url(#SVGID_00000039134993077062929710000013550290655751013052_);" d="M182.751,61.756
						c0-0.259,0.21-0.468,0.47-0.468l0,0c0.259,0,0.47,0.209,0.47,0.468v11.402c0,0.258-0.21,0.467-0.47,0.467l0,0
						c-0.26,0-0.47-0.209-0.47-0.467V61.756z"/>
				</g>
				<g>
					<path style="fill:#D42A26;" d="M189.566,59.929v13.749c3.029-0.836,5.254-3.597,5.254-6.874
						C194.82,63.524,192.595,60.763,189.566,59.929z"/>
					<path style="fill:#DADADA;" d="M192.686,69.431c-2.298-1.474-2.885-3.554-3.121-6.057v10.304
						c1.958-0.54,3.576-1.888,4.478-3.657C193.567,69.892,193.108,69.701,192.686,69.431z"/>
				</g>
				
					<path style="fill:none;stroke:#2C343F;stroke-width:1.6868;stroke-linecap:round;stroke-linejoin:round;stroke-miterlimit:10;" d="
					M191.805,70.542c0,0,2.593,23.568-22.209,22.898"/>
				<path style="fill:#232A33;" d="M170.491,93.533c0,1.136-0.925,2.056-2.067,2.056h-2.774c-1.142,0-2.067-0.92-2.067-2.056l0,0
					c0-1.136,0.925-2.056,2.067-2.056h2.774C169.565,91.478,170.491,92.397,170.491,93.533L170.491,93.533z"/>
			</g>
		</g>
		<g>
			<g>
				
					<path style="fill:none;stroke:#2C343F;stroke-width:1.4057;stroke-linecap:round;stroke-linejoin:round;stroke-miterlimit:10;" d="
					M133.393,65.962v-2.307c0,0,0.105-1.755,1.765-2.809c0,0,5.042-2.923,5.231-13.951c0,0,0.376-15.328,20.108-15.328h9.192"/>
				<path style="fill:#8F2015;" d="M132.196,66.804c0,0.969,0.79,1.754,1.765,1.754l0,0c0.975,0,1.765-0.785,1.765-1.754l0,0
					c0-0.971-0.791-1.756-1.765-1.756l0,0C132.986,65.048,132.196,65.833,132.196,66.804L132.196,66.804z"/>
				<g>
					<path style="fill:#464F5B;" d="M148.003,61.756c0-2.478-2.02-4.486-4.51-4.486l0,0c-2.491,0-4.511,2.009-4.511,4.486v10.095
						c0,2.478,2.02,4.486,4.511,4.486l0,0c2.491,0,4.51-2.009,4.51-4.486V61.756z"/>
					<path style="fill:#C6C6C6;" d="M142.568,61.996c-1.95,2.41-2.214,5.209-1.66,8.169c0.476,2.535,2.366,5.096,5.01,5.463
						c-0.701,0.446-1.531,0.709-2.425,0.709c-2.491,0-4.511-2.009-4.511-4.486V61.756c0-2.478,2.02-4.486,4.511-4.486
						c1.947,0,3.601,1.229,4.233,2.95C145.819,59.984,143.833,60.433,142.568,61.996z"/>
					<defs>
						
							<filter id="Adobe_OpacityMaskFilter_00000123423213180697230450000011476165831592864943_" filterUnits="userSpaceOnUse" x="145.466" y="61.288" width="0.94" height="12.337">
							<feFlood  style="flood-color:white;flood-opacity:1" result="back"/>
							<feBlend  in="SourceGraphic" in2="back" mode="normal"/>
						</filter>
					</defs>
					
						<mask maskUnits="userSpaceOnUse" x="145.466" y="61.288" width="0.94" height="12.337" id="SVGID_00000029005228163831938110000002024028672014061749_">
						<g style="filter:url(#Adobe_OpacityMaskFilter_00000123423213180697230450000011476165831592864943_);">
							<defs>
								
									<filter id="Adobe_OpacityMaskFilter_00000026870769695494230730000007010583237626344382_" filterUnits="userSpaceOnUse" x="145.466" y="61.288" width="0.94" height="12.337">
									<feFlood  style="flood-color:white;flood-opacity:1" result="back"/>
									<feBlend  in="SourceGraphic" in2="back" mode="normal"/>
								</filter>
							</defs>
							
								<mask maskUnits="userSpaceOnUse" x="145.466" y="61.288" width="0.94" height="12.337" id="SVGID_00000029005228163831938110000002024028672014061749_">
								<g style="filter:url(#Adobe_OpacityMaskFilter_00000026870769695494230730000007010583237626344382_);">
								</g>
							</mask>
							
								<linearGradient id="SVGID_00000103973425393344798930000002434665874648270254_" gradientUnits="userSpaceOnUse" x1="145.4663" y1="67.4566" x2="146.4063" y2="67.4566">
								<stop  offset="0" style="stop-color:#FFFFFF"/>
								<stop  offset="1" style="stop-color:#000000"/>
							</linearGradient>
							
								<path style="mask:url(#SVGID_00000029005228163831938110000002024028672014061749_);fill:url(#SVGID_00000103973425393344798930000002434665874648270254_);" d="
								M146.406,61.756c0-0.259-0.211-0.468-0.47-0.468l0,0c-0.26,0-0.47,0.209-0.47,0.468v11.402c0,0.258,0.211,0.467,0.47,0.467
								l0,0c0.259,0,0.47-0.209,0.47-0.467V61.756z"/>
						</g>
					</mask>
					
						<linearGradient id="SVGID_00000126291657896308077490000017418736580195690163_" gradientUnits="userSpaceOnUse" x1="145.4663" y1="67.4566" x2="146.4063" y2="67.4566">
						<stop  offset="0" style="stop-color:#FFFFFF"/>
						<stop  offset="1" style="stop-color:#FFFFFF"/>
					</linearGradient>
					<path style="fill:url(#SVGID_00000126291657896308077490000017418736580195690163_);" d="M146.406,61.756
						c0-0.259-0.211-0.468-0.47-0.468l0,0c-0.26,0-0.47,0.209-0.47,0.468v11.402c0,0.258,0.211,0.467,0.47,0.467l0,0
						c0.259,0,0.47-0.209,0.47-0.467V61.756z"/>
				</g>
				<g>
					<path style="fill:#D42A26;" d="M139.591,59.929v13.749c-3.031-0.836-5.254-3.597-5.254-6.874
						C134.337,63.524,136.561,60.763,139.591,59.929z"/>
					<path style="fill:#DADADA;" d="M136.47,69.431c2.298-1.474,2.886-3.554,3.122-6.057v10.304c-1.96-0.54-3.577-1.888-4.479-3.657
						C135.59,69.892,136.048,69.701,136.47,69.431z"/>
				</g>
			</g>
		</g>
		<path style="fill:#D42A26;" d="M177.616,31.755c0,1.575-1.277,2.852-2.852,2.852h-20.373c-1.575,0-2.852-1.276-2.852-2.852l0,0
			c0-1.574,1.277-2.852,2.852-2.852h20.373C176.339,28.903,177.616,30.181,177.616,31.755L177.616,31.755z"/>
		<path style="fill:#C6C6C6;" d="M151.552,31.974c0.112,1.473,1.34,2.633,2.84,2.633h20.373c1.501,0,2.728-1.16,2.84-2.633H151.552z
			"/>
	</g>
	<g>
		<g>
			<path style="fill:none;stroke:#D42A26;stroke-width:0.7823;stroke-miterlimit:10;" d="M323.155,74.493
				c0,0.034-1.535,1.656-0.974,1.768c0.256,0.052,1.088-2.954,1.438-2.903c0.282,0.041,0.208,3.16,0.54,3.195
				c0.292,0.03,0.868-3.035,1.192-3.013c0.297,0.02,0.454,3.137,0.775,3.146c0.301,0.01,0.653-3.091,0.971-3.093
				c0.303,0,0.686,3.096,1.002,3.082c0.305-0.013,0.422-3.13,0.735-3.155c0.305-0.025,0.934,3.029,1.246,2.99
				c0.305-0.038,0.156-3.153,0.465-3.206c0.304-0.053,1.211,2.932,1.516,2.863c0.302-0.067-0.155-3.152,0.145-3.236
				c0.298-0.084,1.517,2.787,1.812,2.687c0.292-0.101-0.515-3.113-0.228-3.232c0.286-0.119,1.855,2.576,2.134,2.438
				c0.277-0.138-0.931-3.013-0.662-3.171c0.266-0.157,2.206,2.284,2.461,2.105c0.253-0.177-1.379-2.833-1.138-3.032
				c0.237-0.196,2.544,1.901,2.768,1.683c0.219-0.215-1.829-2.564-1.623-2.801c0.2-0.232,2.824,1.451,3.009,1.195
				c0.179-0.246-2.231-2.224-2.067-2.493c0.158-0.26,3.02,0.977,3.163,0.694c0.138-0.271-2.552-1.85-2.43-2.143
				c0.117-0.28,3.131,0.52,3.232,0.219c0.097-0.288-2.785-1.48-2.703-1.787c0.079-0.293,3.171,0.115,3.235-0.197
				c0.061-0.299-2.931-1.2-2.884-1.516c0.103-0.558,3.145,0.121,3.259-0.586c0.051-0.318-2.963-1.148-2.906-1.575
				c0.046-0.343,3.174-0.346,3.217-0.748c0.039-0.355-3.015-1.027-2.982-1.421c0.03-0.362,3.153-0.522,3.176-0.912
				c0.021-0.366-3.064-0.879-3.052-1.267c0.011-0.369,3.121-0.7,3.122-1.085c0-0.372-3.108-0.706-3.12-1.088
				c-0.011-0.374,3.072-0.896,3.048-1.277c-0.024-0.375-3.148-0.496-3.187-0.875c-0.038-0.375,2.996-1.133,2.941-1.508
				c-0.054-0.375-3.177-0.229-3.249-0.601c-0.072-0.373,2.876-1.415,2.785-1.782c-0.092-0.369-3.181,0.112-3.294-0.247
				c-0.115-0.363,2.682-1.761,2.543-2.111c-0.14-0.354-3.128,0.558-3.295,0.22c-0.169-0.342,2.365-2.172,2.168-2.493
				c-0.199-0.324-2.967,1.12-3.196,0.821c-0.231-0.301,1.868-2.613,1.604-2.886c-0.262-0.269-2.628,1.766-2.925,1.527
				c-0.292-0.234,1.184-2.986,0.857-3.187c-0.317-0.194-2.103,2.366-2.454,2.207c-0.336-0.152,0.424-3.18,0.056-3.297
				c-0.351-0.112-1.5,2.792-1.882,2.714c-0.36-0.074-0.254-3.196-0.643-3.237c-0.364-0.039-0.945,3.031-1.335,3.021
				c-0.368-0.009-0.783-3.107-1.174-3.089c-0.368,0.017-0.503,3.141-0.893,3.184"/>
		</g>
		<g>
			<g>
				<g>
					<path style="fill:#D42A26;" d="M271.06,41.825c0,0-5.402,5.26-2.559,13.79h9.228h1.434h9.229
						c2.843-8.53-2.559-13.79-2.559-13.79s-7.195-6.02,14.463-4.857v-7.463C300.296,29.505,281.438,29.22,271.06,41.825z"/>
					<path style="fill:#C6C6C6;" d="M287.139,51.529c-2.643,0.77-5.546,0.978-8.251,0.409c-2.673-0.561-4.327-1.516-5.979-3.479
						c-1.002-1.191-3.539-5.049-1.848-6.635c-0.003,0.003-5.402,5.262-2.559,13.79h19.89c0.59-1.77,0.824-3.397,0.826-4.868
						C288.541,51.065,287.839,51.325,287.139,51.529z"/>
					<g>
						<path style="fill:#8C1F14;" d="M267.76,53.341c-0.026,0.122-0.04,0.248-0.04,0.379v1.231c0,1.021,0.828,1.849,1.849,1.849
							h17.801c1.02,0,1.848-0.828,1.848-1.849V53.72c0-0.131-0.014-0.257-0.039-0.379H267.76z"/>
						<path style="fill:#C6C6C6;" d="M278.352,55.575c-1.72-0.301-3.679-0.672-5.16-1.648c-0.254-0.167-0.514-0.362-0.746-0.586
							h-4.71c-0.025,0.122-0.039,0.248-0.039,0.379v1.231c0,1.021,0.827,1.849,1.848,1.849h17.802c1.021,0,1.848-0.828,1.848-1.849
							v-0.924c-1.185,0.662-2.534,1.011-3.846,1.337C282.974,55.956,280.734,55.989,278.352,55.575z"/>
					</g>
					<path style="fill:#FFFFFF;" d="M267.915,53.341h21.064c0.052-0.289,0.095-0.573,0.129-0.854h-21.323
						C267.819,52.768,267.862,53.052,267.915,53.341z"/>
					<path style="fill:#FFFFFF;" d="M284.281,42.773h-3.386c1.425,2.019,2.999,4.979,2.944,8.16
						c2.187-0.317,3.569-1.241,3.569-1.241C287.693,46.043,284.281,42.773,284.281,42.773z"/>
				</g>
				<g>
					<path style="fill:#D42A26;" d="M330.517,41.825c0,0,5.402,5.26,2.559,13.79h-9.228h-1.434h-9.229
						c-2.843-8.53,2.559-13.79,2.559-13.79s5.985-6.02-15.672-4.857v-7.463C300.072,29.505,320.139,29.22,330.517,41.825z"/>
					<path style="fill:#C6C6C6;" d="M314.437,51.529c2.644,0.77,5.547,0.978,8.252,0.409c2.673-0.561,4.327-1.516,5.979-3.479
						c1.003-1.191,3.539-5.049,1.848-6.635c0.003,0.003,5.401,5.262,2.559,13.79h-19.89c-0.59-1.77-0.824-3.397-0.826-4.868
						C313.036,51.065,313.738,51.325,314.437,51.529z"/>
					<g>
						<path style="fill:#8C1F14;" d="M333.817,53.341c0.025,0.122,0.039,0.248,0.039,0.379v1.231c0,1.021-0.828,1.849-1.848,1.849
							h-17.801c-1.02,0-1.848-0.828-1.848-1.849V53.72c0-0.131,0.014-0.257,0.039-0.379H333.817z"/>
						<path style="fill:#C6C6C6;" d="M323.225,55.575c1.72-0.301,3.678-0.672,5.16-1.648c0.254-0.167,0.514-0.362,0.746-0.586h4.709
							c0.026,0.122,0.039,0.248,0.039,0.379v1.231c0,1.021-0.827,1.849-1.848,1.849h-17.802c-1.02,0-1.848-0.828-1.848-1.849v-0.924
							c1.186,0.662,2.534,1.011,3.846,1.337C318.603,55.956,320.842,55.989,323.225,55.575z"/>
					</g>
					<path style="fill:#FFFFFF;" d="M333.662,53.341h-21.063c-0.052-0.289-0.096-0.573-0.13-0.854h21.323
						C333.757,52.768,333.714,53.052,333.662,53.341z"/>
					<path style="fill:#FFFFFF;" d="M317.295,42.773h3.386c-1.426,2.019-2.999,4.979-2.945,8.16
						c-2.187-0.317-3.569-1.241-3.569-1.241C313.884,46.043,317.295,42.773,317.295,42.773z"/>
				</g>
			</g>
			<g>
				<path style="fill:#8C1F14;" d="M324.404,86.678c0,2.03-1.401,3.676-3.129,3.676h-40.972c-1.729,0-3.129-1.646-3.129-3.676
					v-4.383c0-2.03,1.401-3.676,3.129-3.676h40.972c1.728,0,3.129,1.646,3.129,3.676V86.678z"/>
				<path style="fill:#C6C6C6;" d="M317.685,87.944c-5.473,1.334-11.156,1.854-16.78,1.593c-3.028-0.14-6.054-0.462-9.041-0.981
					c-2.196-0.382-4.525-1.088-6.323-2.455c-1.961-1.49-3.405-3.462-3.487-6.012c-0.016-0.486,0.006-0.979,0.063-1.47h-1.813
					c-1.729,0-3.129,1.646-3.129,3.676v4.383c0,2.03,1.401,3.676,3.129,3.676h40.972c1.728,0,3.129-1.646,3.129-3.676v-1.401
					C322.363,86.526,320.058,87.365,317.685,87.944z"/>
				<path style="fill:#D42A26;" d="M318.887,50.387c0-1.073-0.601-2.011-1.496-2.533h-33.665c-0.742,0.544-1.223,1.395-1.223,2.354
					l-5.329,29.137c0,1.642,1.401,2.975,3.129,2.975h40.972c1.728,0,3.129-1.332,3.129-2.975L318.887,50.387z"/>
				<path style="fill:#FFFFFF;" d="M286.126,74.022c1.267-4.554,3.103-9.146,6.01-12.996c2.965-3.926,6.854-7.231,11.281-9.611
					c1.248-0.67,2.548-1.299,3.888-1.854h-21.89c-0.668,0.489-1.101,1.256-1.101,2.121l-4.801,26.249
					c0,1.479,1.262,2.679,2.819,2.679h2.447C285.071,78.386,285.526,76.179,286.126,74.022z"/>
				<path style="fill:#C6C6C6;" d="M318.887,50.387c0-1.073-0.601-2.011-1.496-2.533h-4.108c1.156,2.829,2.025,5.749,2.128,8.801
					c0.163,4.819-1.592,9.527-4.272,13.573c-3.793,5.725-9.157,9.667-15.268,12.092h25.404c1.728,0,3.129-1.332,3.129-2.975
					L318.887,50.387z"/>
				<path style="fill:#B2B2B2;" d="M301.979,52.844c-6.624,0-11.996,5.371-11.996,11.996c0,6.624,5.371,11.995,11.996,11.995
					c6.625,0,11.996-5.371,11.996-11.995C313.975,58.215,308.604,52.844,301.979,52.844z M301.979,71.407
					c-3.627,0-6.567-2.942-6.567-6.567c0-3.628,2.94-6.567,6.567-6.567s6.567,2.939,6.567,6.567
					C308.547,68.466,305.607,71.407,301.979,71.407z"/>
				<g>
					<path style="fill:#DADADA;" d="M294.306,68.425c0,0.864-0.7,1.565-1.564,1.565c-0.864,0-1.564-0.7-1.564-1.565
						c0-0.863,0.7-1.563,1.564-1.563C293.606,66.861,294.306,67.562,294.306,68.425z"/>
					<path style="fill:#DADADA;" d="M293.042,66.891c-0.097-0.02-0.197-0.029-0.3-0.029c-0.864,0-1.564,0.7-1.564,1.563
						c0,0.864,0.7,1.565,1.564,1.565c0.264,0,0.513-0.066,0.731-0.182C292.482,69.225,292.34,67.736,293.042,66.891z"/>
				</g>
				<path style="fill:#FFFFFF;" d="M300.789,52.192c-6.625,0-11.996,5.37-11.996,11.995s5.371,11.995,11.996,11.995
					s11.996-5.37,11.996-11.995S307.414,52.192,300.789,52.192z M300.789,70.755c-3.627,0-6.567-2.941-6.567-6.567
					c0-3.627,2.94-6.567,6.567-6.567c3.627,0,6.567,2.941,6.567,6.567C307.356,67.813,304.416,70.755,300.789,70.755z"/>
				<g>
					<path style="fill:#DADADA;" d="M311.31,62.297c0,0.864-0.701,1.565-1.564,1.565c-0.864,0-1.564-0.701-1.564-1.565
						c0-0.863,0.7-1.564,1.564-1.564C310.609,60.733,311.31,61.434,311.31,62.297z"/>
					<path style="fill:#DADADA;" d="M309.872,61.973v-0.065c0-0.406,0.135-0.785,0.361-1.096c-0.153-0.051-0.316-0.078-0.486-0.078
						c-0.864,0-1.564,0.7-1.564,1.564c0,0.864,0.7,1.565,1.564,1.565c0.362,0,0.695-0.125,0.96-0.332
						C310.206,63.188,309.872,62.613,309.872,61.973z"/>
				</g>
				<g>
					<path style="fill:#DADADA;" d="M309.354,58.32c0,0.864-0.7,1.564-1.564,1.564c-0.864,0-1.564-0.7-1.564-1.564
						c0-0.863,0.7-1.563,1.564-1.563C308.654,56.757,309.354,57.457,309.354,58.32z"/>
					<path style="fill:#DADADA;" d="M308.09,56.786c-0.097-0.02-0.197-0.029-0.3-0.029c-0.864,0-1.564,0.7-1.564,1.563
						c0,0.864,0.7,1.564,1.564,1.564c0.265,0,0.513-0.066,0.731-0.183C307.531,59.12,307.387,57.632,308.09,56.786z"/>
				</g>
				<g>
					<path style="fill:#DADADA;" d="M301.467,55.192c0,0.863-0.701,1.564-1.564,1.564c-0.864,0-1.565-0.701-1.565-1.564
						c0-0.864,0.701-1.564,1.565-1.564C300.766,53.628,301.467,54.328,301.467,55.192z"/>
					<path style="fill:#DADADA;" d="M300.203,53.657c-0.097-0.019-0.197-0.029-0.3-0.029c-0.864,0-1.565,0.7-1.565,1.564
						c0,0.863,0.701,1.564,1.565,1.564c0.264,0,0.513-0.066,0.731-0.182C299.644,55.991,299.5,54.503,300.203,53.657z"/>
				</g>
				<g>
					<path style="fill:#DADADA;" d="M306.226,55.647c0,0.863-0.701,1.564-1.565,1.564c-0.864,0-1.564-0.701-1.564-1.564
						s0.701-1.564,1.564-1.564C305.525,54.083,306.226,54.784,306.226,55.647z"/>
					<path style="fill:#DADADA;" d="M304.962,54.112c-0.097-0.019-0.197-0.029-0.3-0.029c-0.864,0-1.564,0.701-1.564,1.564
						s0.701,1.564,1.564,1.564c0.264,0,0.513-0.066,0.731-0.182C304.402,56.447,304.259,54.958,304.962,54.112z"/>
				</g>
				<g>
					<path style="fill:#DADADA;" d="M297.435,56.757c0,0.863-0.7,1.563-1.564,1.563c-0.864,0-1.564-0.7-1.564-1.563
						c0-0.865,0.7-1.564,1.564-1.564C296.734,55.192,297.435,55.892,297.435,56.757z"/>
					<path style="fill:#DADADA;" d="M296.171,55.222c-0.097-0.019-0.198-0.029-0.3-0.029c-0.864,0-1.564,0.699-1.564,1.564
						c0,0.863,0.7,1.563,1.564,1.563c0.264,0,0.513-0.065,0.731-0.182C295.611,57.556,295.467,56.067,296.171,55.222z"/>
				</g>
				<g>
					<path style="fill:#DADADA;" d="M294.306,59.885c0,0.864-0.7,1.564-1.564,1.564c-0.864,0-1.564-0.7-1.564-1.564
						c0-0.864,0.7-1.564,1.564-1.564C293.606,58.32,294.306,59.021,294.306,59.885z"/>
					<path style="fill:#DADADA;" d="M293.042,58.351c-0.097-0.02-0.197-0.03-0.3-0.03c-0.864,0-1.564,0.7-1.564,1.564
						c0,0.864,0.7,1.564,1.564,1.564c0.264,0,0.513-0.066,0.731-0.183C292.482,60.685,292.34,59.196,293.042,58.351z"/>
				</g>
				<g>
					<path style="fill:#DADADA;" d="M293.113,64.188c0,0.864-0.701,1.563-1.565,1.563c-0.864,0-1.564-0.699-1.564-1.563
						c0-0.864,0.7-1.564,1.564-1.564C292.412,62.623,293.113,63.323,293.113,64.188z"/>
					<path style="fill:#DADADA;" d="M291.849,62.652c-0.098-0.019-0.198-0.029-0.3-0.029c-0.864,0-1.564,0.7-1.564,1.564
						c0,0.864,0.7,1.563,1.564,1.563c0.264,0,0.513-0.066,0.731-0.182C291.289,64.987,291.146,63.499,291.849,62.652z"/>
				</g>
				<g>
					<path style="fill:#DADADA;" d="M294.306,68.425c0,0.864-0.7,1.565-1.564,1.565c-0.864,0-1.564-0.7-1.564-1.565
						c0-0.863,0.7-1.563,1.564-1.563C293.606,66.861,294.306,67.562,294.306,68.425z"/>
					<path style="fill:#DADADA;" d="M293.042,66.891c-0.097-0.02-0.197-0.029-0.3-0.029c-0.864,0-1.564,0.7-1.564,1.563
						c0,0.864,0.7,1.565,1.564,1.565c0.264,0,0.513-0.066,0.731-0.182C292.482,69.225,292.34,67.736,293.042,66.891z"/>
				</g>
				<g>
					<path style="fill:#DADADA;" d="M297.018,71.554c0,0.863-0.701,1.563-1.565,1.563s-1.564-0.7-1.564-1.563
						c0-0.864,0.7-1.564,1.564-1.564S297.018,70.689,297.018,71.554z"/>
					<path style="fill:#DADADA;" d="M295.754,70.019c-0.097-0.019-0.197-0.029-0.3-0.029c-0.864,0-1.564,0.7-1.564,1.564
						c0,0.863,0.7,1.563,1.564,1.563c0.265,0,0.513-0.065,0.731-0.182C295.194,72.354,295.051,70.864,295.754,70.019z"/>
				</g>
				<g>
					<path style="fill:#DADADA;" d="M301.467,73.673c0,0.863-0.701,1.563-1.564,1.563c-0.864,0-1.565-0.7-1.565-1.563
						c0-0.865,0.701-1.564,1.565-1.564C300.766,72.108,301.467,72.808,301.467,73.673z"/>
					<path style="fill:#DADADA;" d="M300.203,72.138c-0.097-0.02-0.197-0.029-0.3-0.029c-0.864,0-1.565,0.699-1.565,1.564
						c0,0.863,0.701,1.563,1.565,1.563c0.264,0,0.513-0.066,0.731-0.182C299.644,74.472,299.5,72.983,300.203,72.138z"/>
				</g>
				<g>
					<polygon style="fill:#B2B2B2;" points="305.393,69.989 308.182,76.835 311.921,73.412 					"/>
					<path style="fill:#B2B2B2;" d="M305.703,70.151l-0.31-0.162l2.79,6.846l2.613-2.393
						C308.534,73.985,306.21,72.306,305.703,70.151z"/>
				</g>
				<path style="fill:#D42A26;" d="M307.852,41.37c0.678,1.435-0.416,3.241-0.416,3.241h-4.209h-4.876h-4.21
					c0,0-1.094-1.807-0.416-3.241h-4.408c0,0-0.913,4.775,1.435,6.483h7.6h4.876h7.6c2.347-1.708,1.434-6.483,1.434-6.483H307.852z"
					/>
				<path style="fill:#C6C6C6;" d="M312.26,41.37h-1.976c0.108,1.215,0.107,4.075-1.275,5.081h-6.225h-3.994h-6.224
					c-1.383-1.006-1.384-3.866-1.276-5.081h-1.976c0,0-0.913,4.775,1.435,6.483h7.6h4.876h7.6
					C313.173,46.146,312.26,41.37,312.26,41.37z"/>
				<path style="fill:#FFFFFF;" d="M308.412,45.804c0,0.145-0.116,0.261-0.26,0.261h-14.727c-0.143,0-0.26-0.116-0.26-0.261l0,0
					c0-0.144,0.117-0.261,0.26-0.261h14.727C308.295,45.543,308.412,45.66,308.412,45.804L308.412,45.804z"/>
			</g>
		</g>
	</g>
	<g>
		<g>
			<g>
				<path style="fill:#E6332A;" d="M380.369,131.601L380.369,131.601c11.746,3.845,20.231,17.482,20.231,30.512
					c0,16.225-13.152,29.376-29.376,29.376c-15.686,0-28.499-12.294-29.333-27.771c-0.029,0.582-0.044,1.168-0.044,1.758
					c0,18.862,15.292,34.154,34.155,34.154s34.154-15.292,34.154-34.154C410.156,148.091,397.168,133.746,380.369,131.601z"/>
				<path style="fill:#C6C6C6;" d="M380.369,131.601L380.369,131.601c14.309,2.563,25.171,16.895,25.171,31.941
					c0,16.9-13.7,30.601-30.601,30.601c-7.973,0-15.232-3.049-20.678-8.045c-7.102-5.032-11.872-13.139-12.37-22.381
					c-0.029,0.582-0.044,1.168-0.044,1.758c0,18.862,15.292,34.154,34.155,34.154s34.154-15.292,34.154-34.154
					C410.156,148.091,397.168,133.746,380.369,131.601z"/>
				<polygon style="fill:#E6332A;" points="351.154,170.589 341.222,159.721 333.792,172.432 342.024,167.287 				"/>
			</g>
			<g>
				<path style="fill:#E6332A;" d="M371.881,138.966v-3.179c-0.148-0.002-0.296-0.006-0.445-0.006c-0.15,0-0.298,0.004-0.445,0.006
					v3.179H371.881z"/>
				<path style="fill:#E6332A;" d="M370.991,183.91v3.109c0.147,0.003,0.295,0.006,0.445,0.006c0.148,0,0.296-0.003,0.445-0.006
					v-3.109H370.991z"/>
				<path style="fill:#E6332A;" d="M393.907,161.884h3.144c0.003-0.16,0.007-0.32,0.007-0.48c0-0.137-0.004-0.273-0.005-0.411
					h-3.146V161.884z"/>
				<path style="fill:#E6332A;" d="M348.964,160.992h-3.146c-0.002,0.138-0.005,0.274-0.005,0.411c0,0.16,0.003,0.32,0.006,0.48
					h3.145V160.992z"/>
				<path style="fill:#E6332A;" d="M383.057,180.676l1.666,2.64c0.255-0.155,0.505-0.316,0.753-0.478l-1.665-2.637L383.057,180.676z
					"/>
				<path style="fill:#E6332A;" d="M359.814,142.199l-1.697-2.688c-0.253,0.154-0.504,0.314-0.752,0.478l1.697,2.686
					L359.814,142.199z"/>
				<path style="fill:#E6332A;" d="M352.374,149.529l-2.717-1.625c-0.158,0.253-0.311,0.507-0.459,0.765l2.72,1.624L352.374,149.529
					z"/>
				<path style="fill:#E6332A;" d="M390.497,173.348l2.686,1.605c0.158-0.252,0.312-0.506,0.461-0.764l-2.689-1.607L390.497,173.348
					z"/>
				<path style="fill:#E6332A;" d="M383.551,142.507l1.659-2.711c-0.249-0.159-0.503-0.314-0.759-0.465l-1.66,2.71L383.551,142.507z
					"/>
				<path style="fill:#E6332A;" d="M359.321,180.37l-1.629,2.659c0.251,0.16,0.504,0.316,0.76,0.466l1.629-2.66L359.321,180.37z"/>
				<path style="fill:#E6332A;" d="M390.931,150.253l2.715-1.631c-0.149-0.258-0.303-0.512-0.46-0.763l-2.715,1.629L390.931,150.253
					z"/>
				<path style="fill:#E6332A;" d="M351.94,172.624l-2.685,1.612c0.149,0.258,0.303,0.512,0.462,0.763l2.682-1.61L351.94,172.624z"
					/>
			</g>
			<g>
				<path d="M356.005,167.82c0.02-2.38,0.58-4.024,3.87-6.385c1.838-1.315,2.379-1.974,2.379-3.057c0-1.297-0.793-1.684-1.78-1.684
					c-1.142,0-1.877,0.561-1.877,2.283h-2.418c0-2.768,1.548-4.431,4.179-4.431c2.593,0,4.354,1.219,4.354,3.753
					c0,1.954-0.968,3.076-3.715,5.031c-0.987,0.716-1.722,1.644-1.78,2.302h5.534v2.186H356.005z"/>
				<path d="M369.895,167.82v-2.806h-4.992v-2.186l4.682-7.855h2.825v8.088h1.451v1.954h-1.451v2.806H369.895z M369.954,158.533
					l-2.631,4.527h2.631V158.533z"/>
				<path d="M373.84,167.82l3.676-12.848h2.109l-3.715,12.848H373.84z"/>
				<path d="M381.462,167.82c0.29-3.695,1.799-7.507,4.508-10.622h-6.268v-2.226h8.996v1.936c-2.883,3.192-4.45,7.062-4.643,10.912
					H381.462z"/>
			</g>
		</g>
		<g>
			<g>
				<path style="fill:#D42A26;" d="M336.453,149.168c0,0-1.427,5.902,4.168,10.497l6.29-3.956l0.977-0.615l6.29-3.957
					c-1.719-7.033-7.657-8.303-7.657-8.303s-7.485-1.018,7.777-9.512l-3.2-5.087C351.1,128.235,338.123,136.126,336.453,149.168z"/>
				<path style="fill:#C6C6C6;" d="M351.573,148.889c-1.472,1.658-3.361,3.045-5.449,3.816c-2.062,0.765-3.599,0.822-5.567,0.193
					c-1.194-0.382-4.577-1.925-4.104-3.73c-0.001,0.002-1.426,5.902,4.168,10.497l13.558-8.528
					c-0.356-1.459-0.895-2.669-1.524-3.672C352.33,147.972,351.963,148.449,351.573,148.889z"/>
				<g>
					<path style="fill:#8C1F14;" d="M339.141,158.433c0.035,0.095,0.079,0.187,0.135,0.275l0.528,0.84
						c0.438,0.696,1.357,0.904,2.053,0.467l12.134-7.632c0.696-0.438,0.905-1.356,0.467-2.052l-0.528-0.84
						c-0.056-0.089-0.12-0.17-0.19-0.242L339.141,158.433z"/>
					<path style="fill:#C6C6C6;" d="M347.319,155.413c-1.301,0.534-2.795,1.12-4.224,1.089c-0.245-0.004-0.505-0.025-0.76-0.079
						l-3.21,2.02c0.035,0.094,0.08,0.187,0.136,0.274l0.528,0.84c0.438,0.695,1.356,0.905,2.052,0.467l12.134-7.632
						c0.696-0.438,0.904-1.355,0.467-2.052l-0.396-0.629c-0.524,0.959-1.294,1.774-2.049,2.559
						C350.632,153.692,349.12,154.676,347.319,155.413z"/>
				</g>
				<path style="fill:#FFFFFF;" d="M339.246,158.366l14.358-9.031c-0.088-0.22-0.181-0.432-0.277-0.637l-14.535,9.142
					C338.935,158.016,339.086,158.191,339.246,158.366z"/>
				<path style="fill:#FFFFFF;" d="M345.872,144.146l-2.308,1.451c1.837,0.765,4.179,2.107,5.506,4.301
					c1.354-1.155,1.9-2.378,1.9-2.378C349.599,144.912,345.872,144.146,345.872,144.146z"/>
			</g>
			<g>
				<path style="fill:#D42A26;" d="M376.98,123.677c0,0,5.938,1.269,7.656,8.303l-6.29,3.956l-0.977,0.615l-6.29,3.956
					c-5.595-4.596-4.168-10.497-4.168-10.497s1.498-6.668-12.766,3.408l-3.2-5.086C350.946,128.332,364.502,119.533,376.98,123.677z
					"/>
				<path style="fill:#C6C6C6;" d="M370.181,137.185c2.131-0.609,4.2-1.712,5.8-3.258c1.581-1.529,2.299-2.889,2.584-4.936
					c0.173-1.242,0.248-4.958-1.585-5.314c0.003,0,5.938,1.271,7.656,8.303l-13.558,8.527c-1.161-0.953-2.018-1.963-2.649-2.964
					C369.027,137.469,369.617,137.345,370.181,137.185z"/>
				<g>
					<path style="fill:#8C1F14;" d="M384.167,130.111c0.07,0.072,0.133,0.152,0.189,0.241l0.527,0.839
						c0.438,0.696,0.229,1.615-0.467,2.053l-12.134,7.632c-0.696,0.438-1.615,0.229-2.052-0.468l-0.528-0.839
						c-0.056-0.089-0.101-0.181-0.136-0.275L384.167,130.111z"/>
					<path style="fill:#C6C6C6;" d="M377.905,136.175c1.044-0.941,2.22-2.034,2.811-3.336c0.102-0.222,0.195-0.467,0.257-0.72
						l3.21-2.018c0.07,0.072,0.133,0.152,0.189,0.24l0.528,0.84c0.438,0.695,0.228,1.615-0.467,2.053l-12.134,7.632
						c-0.696,0.438-1.614,0.229-2.052-0.468l-0.395-0.629c1.092-0.057,2.161-0.399,3.195-0.738
						C374.918,138.416,376.46,137.479,377.905,136.175z"/>
				</g>
				<path style="fill:#FFFFFF;" d="M384.062,130.178l-14.357,9.03c-0.16-0.175-0.311-0.35-0.455-0.526l14.534-9.143
					C383.881,129.745,383.974,129.958,384.062,130.178z"/>
				<path style="fill:#FFFFFF;" d="M368.375,129.99l2.308-1.451c-0.107,1.987,0.09,4.681,1.491,6.826
					c-1.627,0.721-2.965,0.683-2.965,0.683C367.451,133.683,368.375,129.99,368.375,129.99z"/>
			</g>
		</g>
	</g>
	<g>
		<g>
			<g>
				<path style="fill:#D42A26;" d="M61.754,181.949c0,0,8.739,1.336,14.709-7.352l-6.522-8.631l-1.012-1.342l-6.522-8.633
					c-9.989,3.368-11.092,12.139-11.092,12.139s-0.547,10.984-14.765-10.098l-6.981,5.273
					C29.569,163.307,42.629,181.149,61.754,181.949z"/>
				<path style="fill:#C6C6C6;" d="M59.469,160.051c2.587,1.93,4.835,4.498,6.215,7.43c1.363,2.898,1.639,5.119,0.971,8.053
					c-0.405,1.779-2.223,6.877-4.901,6.416c0.005,0.001,8.74,1.335,14.709-7.352l-14.056-18.605
					c-2.072,0.698-3.761,1.629-5.138,2.667C58.045,159.068,58.785,159.541,59.469,160.051z"/>
				<g>
					<path style="fill:#8C1F14;" d="M74.859,176.899c0.132-0.063,0.26-0.14,0.382-0.231l1.152-0.869
						c0.955-0.723,1.144-2.081,0.422-3.036l-12.579-16.651c-0.721-0.956-2.08-1.145-3.035-0.424l-1.153,0.87
						c-0.121,0.093-0.229,0.194-0.327,0.305L74.859,176.899z"/>
					<path style="fill:#C6C6C6;" d="M69.463,165.411c0.936,1.821,1.972,3.916,2.105,5.992c0.024,0.356,0.024,0.737-0.021,1.112
						l3.328,4.404c0.132-0.063,0.261-0.139,0.382-0.229l1.152-0.87c0.955-0.723,1.144-2.081,0.423-3.035l-12.58-16.653
						c-0.721-0.954-2.08-1.144-3.035-0.422l-0.864,0.652c1.457,0.642,2.736,1.657,3.969,2.653
						C66.554,160.818,68.169,162.891,69.463,165.411z"/>
				</g>
				<path style="fill:#FFFFFF;" d="M74.75,176.756l-14.886-19.705c-0.308,0.155-0.604,0.316-0.89,0.482l15.069,19.945
					C74.281,177.25,74.516,177.008,74.75,176.756z"/>
				<path style="fill:#FFFFFF;" d="M53.298,168.912l2.393,3.167c0.881-2.76,2.539-6.325,5.553-8.521
					c-1.843-1.821-3.684-2.461-3.684-2.461C53.946,163.41,53.298,168.912,53.298,168.912z"/>
			</g>
			<g>
				<path style="fill:#D42A26;" d="M19.739,126.332c0,0,1.104-8.771,11.092-12.139l6.521,8.633l1.014,1.34l6.521,8.633
					c-5.97,8.688-14.708,7.352-14.708,7.352s-9.861-1.346,6.531,18.093l-6.981,5.273C29.728,163.517,15.281,144.947,19.739,126.332z
					"/>
				<path style="fill:#C6C6C6;" d="M40.179,134.516c-1.148-3.018-3.005-5.881-5.448-8.01c-2.414-2.103-4.475-2.975-7.48-3.135
					c-1.823-0.096-7.223,0.258-7.512,2.961c0-0.004,1.105-8.771,11.092-12.139l14.056,18.606c-1.239,1.802-2.596,3.172-3.97,4.213
					C40.734,136.153,40.482,135.314,40.179,134.516z"/>
				<g>
					<path style="fill:#8C1F14;" d="M28.179,115.106c0.096-0.11,0.205-0.213,0.327-0.305l1.152-0.869
						c0.955-0.722,2.314-0.533,3.035,0.422l12.58,16.651c0.721,0.956,0.531,2.314-0.423,3.036l-1.152,0.87
						c-0.122,0.092-0.25,0.168-0.382,0.23L28.179,115.106z"/>
					<path style="fill:#C6C6C6;" d="M37.754,123.437c-1.496-1.397-3.227-2.966-5.188-3.663c-0.335-0.119-0.702-0.225-1.075-0.283
						l-3.329-4.406c0.097-0.109,0.206-0.211,0.327-0.305l1.152-0.869c0.955-0.722,2.314-0.531,3.035,0.422l12.58,16.652
						c0.721,0.955,0.532,2.314-0.423,3.035l-0.864,0.652c-0.219-1.576-0.846-3.084-1.468-4.543
						C41.376,127.49,39.825,125.371,37.754,123.437z"/>
				</g>
				<path style="fill:#FFFFFF;" d="M28.288,115.252l14.885,19.703c-0.233,0.254-0.469,0.494-0.706,0.725l-15.068-19.947
					C27.685,115.566,27.98,115.406,28.288,115.252z"/>
				<path style="fill:#FFFFFF;" d="M29.968,138.028l-2.393-3.167c2.896-0.093,6.778-0.713,9.715-3.012
					c1.249,2.271,1.36,4.216,1.36,4.216C35.438,138.91,29.968,138.028,29.968,138.028z"/>
			</g>
		</g>
		<g>
			<path style="fill:#D42A26;" d="M64.37,138.105c0,0,3.645,6.122,0,11.259c0,0,11.201-2.401,11.273-9.823L64.37,138.105z"/>
			<path style="fill:#C6C6C6;" d="M64.37,138.105c0,0,3.645,6.122,0,11.259c0,0,11.201-2.401,11.273-9.823L64.37,138.105z"/>
			<path style="fill:#D42A26;" d="M96.249,126.459c0,9.027-10.229,16.344-22.847,16.344c-12.618,0-22.848-7.316-22.848-16.344
				c0-9.027,10.229-16.346,22.848-16.346C86.021,110.113,96.249,117.432,96.249,126.459z"/>
			<path style="fill:#C6C6C6;" d="M96.185,125.285c-0.757,7.021-8.956,12.553-18.965,12.553c-10.509,0-19.028-6.096-19.028-13.613
				c0-7.519,8.519-13.612,19.028-13.612c0.791,0,1.569,0.038,2.334,0.105c-1.958-0.391-4.02-0.604-6.151-0.604
				c-12.618,0-22.848,7.318-22.848,16.346c0,9.027,10.229,16.344,22.848,16.344c12.618,0,22.847-7.316,22.847-16.344
				C96.249,126.063,96.223,125.674,96.185,125.285z"/>
			<path style="fill:#FFFFFF;" d="M88.857,121.564c0,3.359-5.28,6.084-11.793,6.084c-6.513,0-11.793-2.725-11.793-6.084
				s5.28-6.083,11.793-6.083C83.577,115.481,88.857,118.205,88.857,121.564z"/>
			<g>
				<g>
					<path style="fill:#FFFFFF;" d="M66.62,126.459c0,1.399-1.134,2.534-2.535,2.534c-1.399,0-2.534-1.135-2.534-2.534
						c0-1.4,1.134-2.535,2.534-2.535C65.486,123.924,66.62,125.059,66.62,126.459z"/>
					<path style="fill:#DADADA;" d="M64.572,123.971c-0.157-0.029-0.319-0.047-0.487-0.047c-1.399,0-2.534,1.135-2.534,2.535
						c0,1.399,1.134,2.534,2.534,2.534c0.428,0,0.831-0.107,1.186-0.295C63.665,127.754,63.434,125.342,64.572,123.971z"/>
				</g>
				<g>
					<path style="fill:#FFFFFF;" d="M75.937,126.459c0,1.399-1.134,2.534-2.535,2.534c-1.4,0-2.534-1.135-2.534-2.534
						c0-1.4,1.134-2.535,2.534-2.535C74.802,123.924,75.937,125.059,75.937,126.459z"/>
					<path style="fill:#DADADA;" d="M73.888,123.971c-0.157-0.029-0.319-0.047-0.486-0.047c-1.4,0-2.534,1.135-2.534,2.535
						c0,1.399,1.134,2.534,2.534,2.534c0.428,0,0.83-0.107,1.185-0.295C72.981,127.754,72.75,125.342,73.888,123.971z"/>
				</g>
				<g>
					<path style="fill:#FFFFFF;" d="M85.253,126.459c0,1.399-1.134,2.534-2.535,2.534c-1.4,0-2.534-1.135-2.534-2.534
						c0-1.4,1.134-2.535,2.534-2.535C84.119,123.924,85.253,125.059,85.253,126.459z"/>
					<path style="fill:#DADADA;" d="M83.205,123.971c-0.157-0.029-0.319-0.047-0.486-0.047c-1.4,0-2.534,1.135-2.534,2.535
						c0,1.399,1.134,2.534,2.534,2.534c0.428,0,0.831-0.107,1.185-0.295C82.298,127.754,82.066,125.342,83.205,123.971z"/>
				</g>
			</g>
		</g>
	</g>
</g>
</svg>
